<svg width="24" height="24" viewBox="0 0 24 24" fill="none" xmlns="http://www.w3.org/2000/svg">
<path d="M12.6549 17.993C12.1391 19.0812 11.2136 19.9211 10.0806 20.3292C8.94758 20.7373 7.6991 20.6804 6.60788 20.171V20.171C5.51963 19.6552 4.67973 18.7297 4.27163 17.5967C3.86354 16.4637 3.92043 15.2152 4.42988 14.124L5.81188 11.187C6.32744 10.0988 7.25274 9.25892 8.3856 8.85082C9.51847 8.44272 10.7668 8.49958 11.8579 9.00899V9.00899C12.4952 9.30967 13.0539 9.75451 13.4897 10.3083C13.9255 10.8622 14.2265 11.5098 14.3689 12.2" stroke="#9E9E9E" stroke-width="1.5" stroke-linecap="round" stroke-linejoin="round"/>
<path d="M11.846 6.10702C12.3618 5.01878 13.2873 4.17887 14.4203 3.77078C15.5533 3.36269 16.8018 3.41958 17.893 3.92902C18.981 4.44479 19.8207 5.3701 20.2288 6.50289C20.6369 7.63568 20.5802 8.88392 20.071 9.97503L18.689 12.912C18.1733 14.0003 17.2478 14.8402 16.1148 15.2483C14.9817 15.6564 13.7333 15.5995 12.642 15.09V15.09C12.0952 14.8324 11.6054 14.4679 11.2014 14.0182C10.7975 13.5684 10.4876 13.0423 10.29 12.471" stroke="#9E9E9E" stroke-width="1.5" stroke-linecap="round" stroke-linejoin="round"/>
</svg>
