<svg width="48" height="48" viewBox="0 0 48 48" fill="none" xmlns="http://www.w3.org/2000/svg">
<path d="M19.4314 0V2.28H14.8564V4.575H19.4314V6.855H21.7114V4.575H26.2864V6.855H28.5664V4.575H33.1414V6.855H35.4364V4.575H37.7164V9.15H39.9964V6.855H42.2914V45.72H17.1514V48H44.5714V45.72H46.8514V6.855H44.5714V4.575H42.2914V2.28H35.4364V0H33.1414V2.28H28.5664V0H26.2864V2.28H21.7114V0H19.4314Z" fill="#DC2626"/>
<path d="M37.7165 9.1499H35.4365V13.7099H37.7165V9.1499Z" fill="#DC2626"/>
<path d="M33.1416 18.285H39.9966V16.005H35.4366V13.71H33.1416V18.285Z" fill="#DC2626"/>
<path d="M30.8614 22.8602H28.5664V27.4352H30.8614V25.1402H39.9964V22.8602H33.1414V18.2852H30.8614V22.8602Z" fill="#DC2626"/>
<path d="M26.2861 31.9951H39.9961V29.7151H28.5661V27.4351H26.2861V31.9951Z" fill="#DC2626"/>
<path d="M26.2868 18.2852H24.0068V20.5802H26.2868V18.2852Z" fill="#DC2626"/>
<path d="M26.2868 13.71H24.0068V16.005H26.2868V13.71Z" fill="#DC2626"/>
<path d="M39.9966 36.5698H19.4316V38.8648H39.9966V36.5698Z" fill="#DC2626"/>
<path d="M24.0064 20.5801H17.1514V22.8601H24.0064V20.5801Z" fill="#DC2626"/>
<path d="M19.4314 13.71H17.1514V16.005H19.4314V13.71Z" fill="#DC2626"/>
<path d="M17.1518 34.2901H26.2868V31.9951H3.42676V34.2901H14.8568V45.7201H17.1518V34.2901Z" fill="#DC2626"/>
<path d="M17.1514 18.2852H14.8564V20.5802H17.1514V18.2852Z" fill="#DC2626"/>
<path d="M14.8562 4.57471H12.5762V9.14971H14.8562V4.57471Z" fill="#DC2626"/>
<path d="M12.5763 9.1499H10.2812V13.7099H12.5763V9.1499Z" fill="#DC2626"/>
<path d="M10.282 13.71H8.00195V18.285H10.282V13.71Z" fill="#DC2626"/>
<path d="M8.00168 18.2852H5.72168V22.8602H8.00168V18.2852Z" fill="#DC2626"/>
<path d="M5.72176 22.8604H3.42676V27.4354H5.72176V22.8604Z" fill="#DC2626"/>
<path d="M3.42648 27.4351H1.14648V31.9951H3.42648V27.4351Z" fill="#DC2626"/>
</svg>
