<svg width="49" height="48" viewBox="0 0 49 48" fill="none" xmlns="http://www.w3.org/2000/svg">
<g clip-path="url(#clip0_412_1920)">
<path d="M2.795 18.285H5.075V15.99H7.355V13.71H9.65V18.285H11.93V20.565H14.21V13.71H9.65V11.43H21.08V9.13501H23.36V25.14H46.22V9.13501H48.5V34.275H46.22V27.42H23.36V34.275H32.51V31.995H34.79V38.85H32.51V36.57H18.785V38.85H16.505V31.995H18.785V34.275H21.08V13.71H16.505V22.86H14.21V25.14H2.795V34.275H0.5V20.565H2.795V18.285Z" fill="#DC2626"/>
<path d="M7.35539 31.9949H9.65039V38.8499H7.35539V36.5699H2.79539V34.2749H7.35539V31.9949Z" fill="#DC2626"/>
<path d="M9.65086 38.8501H16.5059V41.1451H9.65086V38.8501Z" fill="#DC2626"/>
<path d="M11.9309 34.2749H14.2109V36.5699H11.9309V34.2749Z" fill="#DC2626"/>
<path d="M9.65086 29.7151H16.5059V31.9951H9.65086V29.7151Z" fill="#DC2626"/>
<path d="M34.7895 29.7151H41.6445V31.9951H34.7895V29.7151Z" fill="#DC2626"/>
<path d="M34.7895 38.8501H41.6445V41.1451H34.7895V38.8501Z" fill="#DC2626"/>
<path d="M37.0702 34.2749H39.3652V36.5699H37.0702V34.2749Z" fill="#DC2626"/>
<path d="M25.6408 18.2849H43.9258V20.5649H25.6408V18.2849Z" fill="#DC2626"/>
<path d="M25.6408 13.71H43.9258V15.99H25.6408V13.71Z" fill="#DC2626"/>
<path d="M41.6457 31.9949H43.9257V34.2749H46.2207V36.5699H43.9257V38.8499H41.6457V31.9949Z" fill="#DC2626"/>
<path d="M23.3607 6.85498H46.2207V9.13498H23.3607V6.85498Z" fill="#DC2626"/>
</g>
<defs>
<clipPath id="clip0_412_1920">
<rect width="48" height="48" fill="white" transform="matrix(-1 0 0 1 48.5 0)"/>
</clipPath>
</defs>
</svg>
