<svg width="48" height="48" viewBox="0 0 48 48" fill="none" xmlns="http://www.w3.org/2000/svg">
<path d="M3.42746 16.0049H44.5725V45.7199H46.8525V9.1499H44.5725V13.7099H3.42746V9.1499H1.14746V45.7199H3.42746V16.0049Z" fill="#DC2626"/>
<path d="M44.572 6.85498H42.292V9.14998H44.572V6.85498Z" fill="#DC2626"/>
<path d="M44.5727 45.7202H3.42773V48.0002H44.5727V45.7202Z" fill="#DC2626"/>
<path d="M37.7178 27.4351H33.1428V29.7151H30.8628V27.4351H26.2878V29.7151H24.0078V34.2901H26.2878V36.5701H28.5678V38.8501H30.8628V41.1451H33.1428V38.8501H35.4228V36.5701H37.7178V34.2901H39.9978V29.7151H37.7178V27.4351Z" fill="#DC2626"/>
<path d="M37.7179 20.5649H35.4229V22.8599H37.7179V20.5649Z" fill="#DC2626"/>
<path d="M28.5671 20.5649H26.2871V22.8599H28.5671V20.5649Z" fill="#DC2626"/>
<path d="M19.4327 38.8501H17.1377V41.1451H19.4327V38.8501Z" fill="#DC2626"/>
<path d="M19.4327 29.7148H17.1377V31.9948H19.4327V29.7148Z" fill="#DC2626"/>
<path d="M19.4327 20.5649H17.1377V22.8599H19.4327V20.5649Z" fill="#DC2626"/>
<path d="M10.2829 38.8501H8.00293V41.1451H10.2829V38.8501Z" fill="#DC2626"/>
<path d="M10.2829 29.7148H8.00293V31.9948H10.2829V29.7148Z" fill="#DC2626"/>
<path d="M10.2829 20.5649H8.00293V22.8599H10.2829V20.5649Z" fill="#DC2626"/>
<path d="M12.5777 6.855V9.15H14.8577V6.855H33.1427V9.15H35.4227V6.855H42.2927V4.575H35.4227V0H33.1427V4.575H14.8577V0H12.5777V4.575H5.72266V6.855H12.5777Z" fill="#DC2626"/>
<path d="M5.72273 6.85498H3.42773V9.14998H5.72273V6.85498Z" fill="#DC2626"/>
</svg>
