<svg width="25" height="24" viewBox="0 0 25 24" fill="none" xmlns="http://www.w3.org/2000/svg">
<g clip-path="url(#clip0_448_5257)">
<path d="M23.9912 6.44005C24.0623 6.38091 24.1157 6.30318 24.1453 6.21551C24.1749 6.12785 24.1796 6.03369 24.1589 5.94351C24.1381 5.85334 24.0928 5.77068 24.0279 5.70475C23.963 5.63881 23.881 5.59218 23.7912 5.57005L23.0012 5.38005C22.9284 5.36176 22.8608 5.327 22.8036 5.27846C22.7464 5.22991 22.7011 5.16887 22.6712 5.10005C22.6392 5.03289 22.6226 4.95944 22.6226 4.88505C22.6226 4.81066 22.6392 4.73721 22.6712 4.67005L23.1212 3.78005C23.164 3.69292 23.1804 3.59521 23.1686 3.49887C23.1568 3.40252 23.1172 3.31169 23.0547 3.23747C22.9921 3.16325 22.9093 3.10884 22.8163 3.08089C22.7234 3.05294 22.6243 3.05264 22.5312 3.08005L20.5312 3.64005C20.4575 3.66036 20.3801 3.66279 20.3053 3.64713C20.2305 3.63148 20.1605 3.5982 20.1012 3.55005C19.3583 2.99292 18.475 2.65364 17.5502 2.57025C16.6254 2.48686 15.6956 2.66265 14.8651 3.07792C14.0346 3.49318 13.3361 4.13152 12.8479 4.9214C12.3598 5.71128 12.1012 6.62149 12.1012 7.55005V7.91005C12.1016 7.97147 12.0794 8.0309 12.0389 8.07701C11.9983 8.12312 11.9422 8.15268 11.8812 8.16005C9.07118 8.49005 6.38118 7.06005 3.48118 3.72005C3.42002 3.64786 3.33963 3.5945 3.24936 3.56618C3.15908 3.53786 3.06262 3.53573 2.97118 3.56005C2.88408 3.59666 2.80942 3.65767 2.75619 3.73574C2.70297 3.8138 2.67344 3.90559 2.67118 4.00005C2.26593 5.64505 2.42802 7.37869 3.13118 8.92005C3.15307 8.95989 3.16454 9.0046 3.16454 9.05005C3.16454 9.0955 3.15307 9.14022 3.13118 9.18005C3.10429 9.21981 3.06609 9.25059 3.02153 9.26841C2.97696 9.28624 2.92808 9.29029 2.88118 9.28005L1.75118 9.06005C1.67123 9.04921 1.58986 9.05711 1.51349 9.08315C1.43712 9.10918 1.36786 9.15263 1.31118 9.21005C1.25665 9.26814 1.21649 9.3382 1.19391 9.41461C1.17134 9.49102 1.16698 9.57165 1.18118 9.65005C1.26752 10.4175 1.52536 11.1557 1.9356 11.81C2.34585 12.4643 2.898 13.018 3.55118 13.4301C3.59031 13.4537 3.62219 13.4877 3.64335 13.5283C3.66451 13.5688 3.67414 13.6144 3.67118 13.6601C3.67069 13.7074 3.65618 13.7536 3.62949 13.7928C3.6028 13.8319 3.56511 13.8623 3.52118 13.8801L2.98118 14.0901C2.8533 14.1461 2.75268 14.2503 2.70118 14.3801C2.67423 14.4433 2.66033 14.5113 2.66033 14.5801C2.66033 14.6488 2.67423 14.7168 2.70118 14.7801C2.99427 15.4214 3.43854 15.9821 3.99588 16.414C4.55322 16.8459 5.20701 17.1362 5.90118 17.2601C5.95054 17.2748 5.99465 17.3033 6.02832 17.3423C6.06198 17.3813 6.0838 17.4291 6.09118 17.4801C6.09613 17.5336 6.08436 17.5873 6.05749 17.6339C6.03063 17.6804 5.99 17.7175 5.94118 17.7401C4.58659 18.2948 3.1349 18.5735 1.67118 18.5601C1.53858 18.5335 1.40086 18.5608 1.28834 18.6358C1.17582 18.7108 1.0977 18.8274 1.07118 18.9601C1.04466 19.0927 1.0719 19.2304 1.14692 19.3429C1.22193 19.4554 1.33858 19.5335 1.47118 19.5601C4.01732 20.7723 6.79183 21.4301 9.61118 21.4901C12.0905 21.5267 14.5255 20.831 16.6112 19.4901C18.3277 18.3464 19.7339 16.7951 20.7042 14.975C21.6745 13.1549 22.1785 11.1226 22.1712 9.06005V8.19005C22.1711 8.11732 22.1872 8.04549 22.2184 7.97976C22.2495 7.91403 22.2949 7.85606 22.3512 7.81005L23.9912 6.44005Z" fill="white"/>
</g>
<defs>
<clipPath id="clip0_448_5257">
<rect width="24" height="24" fill="white" transform="translate(0.671143)"/>
</clipPath>
</defs>
</svg>
