<svg width="24" height="24" viewBox="0 0 24 24" fill="none" xmlns="http://www.w3.org/2000/svg">
<path d="M21.7087 8.57624V9.71624H22.8563V7.42874H19.4288V5.14124H18.2812V8.57624H21.7087Z" fill="white"/>
<path d="M21.7084 9.71625H20.5684V10.8562H21.7084V9.71625Z" fill="white"/>
<path d="M20.5687 10.8562H19.4287V12.0037H20.5687V10.8562Z" fill="white"/>
<path d="M19.4288 12.0038H18.2812V16.5713H19.4288V12.0038Z" fill="white"/>
<path d="M18.2806 16.5713H17.1406V18.8588H18.2806V16.5713Z" fill="white"/>
<path d="M18.2806 4.00122H17.1406V5.14122H18.2806V4.00122Z" fill="white"/>
<path d="M17.141 18.8588H16.001V19.9988H17.141V18.8588Z" fill="white"/>
<path d="M17.141 2.86121H16.001V4.00121H17.141V2.86121Z" fill="white"/>
<path d="M16.001 19.9988H14.8535V21.1463H16.001V19.9988Z" fill="white"/>
<path d="M16.0004 6.28876H13.7129V8.57626H16.0004V6.28876Z" fill="white"/>
<path d="M3.4232 21.1463V19.9988H2.2832V22.2863H14.8532V21.1463H3.4232Z" fill="white"/>
<path d="M16.0008 1.71375H11.4258V2.86125H16.0008V1.71375Z" fill="white"/>
<path d="M11.4261 2.86121H10.2861V4.00121H11.4261V2.86121Z" fill="white"/>
<path d="M10.2862 4.00122H9.13867V5.14122H10.2862V4.00122Z" fill="white"/>
<path d="M9.1384 8.57624V5.14124H7.9984V7.42874H6.8584V8.57624H9.1384Z" fill="white"/>
<path d="M6.85844 16.5713H7.99844V15.4313H5.71094V17.7188H6.85844V16.5713Z" fill="white"/>
<path d="M6.85844 6.28876H5.71094V7.42876H6.85844V6.28876Z" fill="white"/>
<path d="M5.71129 17.7188H4.57129V18.8588H5.71129V17.7188Z" fill="white"/>
<path d="M5.71129 14.2838H4.57129V15.4313H5.71129V14.2838Z" fill="white"/>
<path d="M5.71129 5.14124H4.57129V6.28874H5.71129V5.14124Z" fill="white"/>
<path d="M4.57133 18.8588H3.42383V19.9988H4.57133V18.8588Z" fill="white"/>
<path d="M4.57133 13.1437H3.42383V14.2837H4.57133V13.1437Z" fill="white"/>
<path d="M4.57133 4.00122H3.42383V5.14122H4.57133V4.00122Z" fill="white"/>
<path d="M3.4232 12.0038H2.2832V13.1438H3.4232V12.0038Z" fill="white"/>
<path d="M2.28355 4.00121H3.42355V2.86121H1.14355V12.0037H2.28355V4.00121Z" fill="white"/>
</svg>
