<svg width="48" height="48" viewBox="0 0 48 48" fill="none" xmlns="http://www.w3.org/2000/svg">
<path d="M41.145 6.87012H43.425V32.0101H41.145V6.87012Z" fill="url(#paint0_linear_334_7131)"/>
<path d="M38.865 32.01H41.145V36.585H38.865V32.01Z" fill="url(#paint1_linear_334_7131)"/>
<path d="M36.5701 36.585H38.8651V38.865H36.5701V36.585Z" fill="url(#paint2_linear_334_7131)"/>
<path d="M36.5701 9.1499H38.8651V32.0099H36.5701V9.1499Z" fill="url(#paint3_linear_334_7131)"/>
<path d="M36.5701 4.57495H41.1451V6.86995H36.5701V4.57495Z" fill="url(#paint4_linear_334_7131)"/>
<path d="M34.29 38.865H36.57V41.145H34.29V38.865Z" fill="url(#paint5_linear_334_7131)"/>
<path d="M34.29 32.01H36.57V36.585H34.29V32.01Z" fill="url(#paint6_linear_334_7131)"/>
<path d="M32.01 41.145H34.29V43.44H32.01V41.145Z" fill="url(#paint7_linear_334_7131)"/>
<path d="M32.01 36.585H34.29V38.865H32.01V36.585Z" fill="url(#paint8_linear_334_7131)"/>
<path d="M32.01 6.87012H36.57V9.15012H32.01V6.87012Z" fill="url(#paint9_linear_334_7131)"/>
<path d="M32.01 2.29492H36.57V4.57492H32.01V2.29492Z" fill="url(#paint10_linear_334_7131)"/>
<path d="M27.4351 43.4399H32.0101V45.7199H27.4351V43.4399Z" fill="url(#paint11_linear_334_7131)"/>
<path d="M27.4351 38.865H32.0101V41.145H27.4351V38.865Z" fill="url(#paint12_linear_334_7131)"/>
<path d="M27.4351 25.155H29.7151V29.715H27.4351V25.155Z" fill="url(#paint13_linear_334_7131)"/>
<path d="M27.4351 18.2849H29.7151V20.5799H27.4351V18.2849Z" fill="url(#paint14_linear_334_7131)"/>
<path d="M20.5798 18.2851H22.8598V22.8601H20.5798V25.1551H22.8598V29.7151H20.5798V32.0101H22.8598V34.2901H25.1398V32.0101H27.4348V29.7151H25.1398V25.1551H27.4348V22.8601H25.1398V18.2851H27.4348V16.0051H25.1398V13.7251H22.8598V16.0051H20.5798V18.2851Z" fill="url(#paint15_linear_334_7131)"/>
<path d="M20.5798 45.72H27.4348V48H20.5798V45.72Z" fill="url(#paint16_linear_334_7131)"/>
<path d="M20.5798 41.145H27.4348V43.44H20.5798V41.145Z" fill="url(#paint17_linear_334_7131)"/>
<path d="M16.0049 43.4399H20.5799V45.7199H16.0049V43.4399Z" fill="url(#paint18_linear_334_7131)"/>
<path d="M16.0049 38.865H20.5799V41.145H16.0049V38.865Z" fill="url(#paint19_linear_334_7131)"/>
<path d="M18.2849 27.4351H20.5799V29.7151H18.2849V27.4351Z" fill="url(#paint20_linear_334_7131)"/>
<path d="M18.2849 18.2849H20.5799V22.8599H18.2849V18.2849Z" fill="url(#paint21_linear_334_7131)"/>
<path d="M16.0049 4.57495H32.0099V6.86995H16.0049V4.57495Z" fill="url(#paint22_linear_334_7131)"/>
<path d="M16.0049 0H32.0099V2.295H16.0049V0Z" fill="url(#paint23_linear_334_7131)"/>
<path d="M13.71 41.145H16.005V43.44H13.71V41.145Z" fill="url(#paint24_linear_334_7131)"/>
<path d="M13.71 36.585H16.005V38.865H13.71V36.585Z" fill="url(#paint25_linear_334_7131)"/>
<path d="M11.4299 6.87012H16.0049V9.15012H11.4299V6.87012Z" fill="url(#paint26_linear_334_7131)"/>
<path d="M11.4299 2.29492H16.0049V4.57492H11.4299V2.29492Z" fill="url(#paint27_linear_334_7131)"/>
<path d="M11.4299 38.865H13.7099V41.145H11.4299V38.865Z" fill="url(#paint28_linear_334_7131)"/>
<path d="M11.4299 32.01H13.7099V36.585H11.4299V32.01Z" fill="url(#paint29_linear_334_7131)"/>
<path d="M9.1499 36.585H11.4299V38.865H9.1499V36.585Z" fill="url(#paint30_linear_334_7131)"/>
<path d="M9.1499 9.1499H11.4299V32.0099H9.1499V9.1499Z" fill="url(#paint31_linear_334_7131)"/>
<path d="M6.85498 4.57495H11.43V6.86995H6.85498V4.57495Z" fill="url(#paint32_linear_334_7131)"/>
<path d="M6.85498 32.01H9.14998V36.585H6.85498V32.01Z" fill="url(#paint33_linear_334_7131)"/>
<path d="M4.57495 6.87012H6.85495V32.0101H4.57495V6.87012Z" fill="url(#paint34_linear_334_7131)"/>
<defs>
<linearGradient id="paint0_linear_334_7131" x1="43.425" y1="32.0101" x2="38.6531" y2="31.5279" gradientUnits="userSpaceOnUse">
<stop stop-color="#DC2626"/>
<stop offset="1" stop-color="#FA603E"/>
</linearGradient>
<linearGradient id="paint1_linear_334_7131" x1="41.145" y1="36.585" x2="37.4606" y2="34.5389" gradientUnits="userSpaceOnUse">
<stop stop-color="#DC2626"/>
<stop offset="1" stop-color="#FA603E"/>
</linearGradient>
<linearGradient id="paint2_linear_334_7131" x1="38.8651" y1="38.865" x2="36.7162" y2="36.4547" gradientUnits="userSpaceOnUse">
<stop stop-color="#DC2626"/>
<stop offset="1" stop-color="#FA603E"/>
</linearGradient>
<linearGradient id="paint3_linear_334_7131" x1="38.8651" y1="32.0099" x2="34.0727" y2="31.4738" gradientUnits="userSpaceOnUse">
<stop stop-color="#DC2626"/>
<stop offset="1" stop-color="#FA603E"/>
</linearGradient>
<linearGradient id="paint4_linear_334_7131" x1="41.1451" y1="6.86995" x2="39.5151" y2="3.24918" gradientUnits="userSpaceOnUse">
<stop stop-color="#DC2626"/>
<stop offset="1" stop-color="#FA603E"/>
</linearGradient>
<linearGradient id="paint5_linear_334_7131" x1="36.57" y1="41.145" x2="34.4196" y2="38.7487" gradientUnits="userSpaceOnUse">
<stop stop-color="#DC2626"/>
<stop offset="1" stop-color="#FA603E"/>
</linearGradient>
<linearGradient id="paint6_linear_334_7131" x1="36.57" y1="36.585" x2="32.8856" y2="34.5389" gradientUnits="userSpaceOnUse">
<stop stop-color="#DC2626"/>
<stop offset="1" stop-color="#FA603E"/>
</linearGradient>
<linearGradient id="paint7_linear_334_7131" x1="34.29" y1="43.44" x2="32.124" y2="41.0421" gradientUnits="userSpaceOnUse">
<stop stop-color="#DC2626"/>
<stop offset="1" stop-color="#FA603E"/>
</linearGradient>
<linearGradient id="paint8_linear_334_7131" x1="34.29" y1="38.865" x2="32.1396" y2="36.4687" gradientUnits="userSpaceOnUse">
<stop stop-color="#DC2626"/>
<stop offset="1" stop-color="#FA603E"/>
</linearGradient>
<linearGradient id="paint9_linear_334_7131" x1="36.57" y1="9.15012" x2="34.9542" y2="5.54905" gradientUnits="userSpaceOnUse">
<stop stop-color="#DC2626"/>
<stop offset="1" stop-color="#FA603E"/>
</linearGradient>
<linearGradient id="paint10_linear_334_7131" x1="36.57" y1="4.57492" x2="34.9542" y2="0.973858" gradientUnits="userSpaceOnUse">
<stop stop-color="#DC2626"/>
<stop offset="1" stop-color="#FA603E"/>
</linearGradient>
<linearGradient id="paint11_linear_334_7131" x1="32.0101" y1="45.7199" x2="30.3978" y2="42.1149" gradientUnits="userSpaceOnUse">
<stop stop-color="#DC2626"/>
<stop offset="1" stop-color="#FA603E"/>
</linearGradient>
<linearGradient id="paint12_linear_334_7131" x1="32.0101" y1="41.145" x2="30.3978" y2="37.54" gradientUnits="userSpaceOnUse">
<stop stop-color="#DC2626"/>
<stop offset="1" stop-color="#FA603E"/>
</linearGradient>
<linearGradient id="paint13_linear_334_7131" x1="29.7151" y1="29.715" x2="26.0364" y2="27.6654" gradientUnits="userSpaceOnUse">
<stop stop-color="#DC2626"/>
<stop offset="1" stop-color="#FA603E"/>
</linearGradient>
<linearGradient id="paint14_linear_334_7131" x1="29.7151" y1="20.5799" x2="27.549" y2="18.182" gradientUnits="userSpaceOnUse">
<stop stop-color="#DC2626"/>
<stop offset="1" stop-color="#FA603E"/>
</linearGradient>
<linearGradient id="paint15_linear_334_7131" x1="27.4348" y1="34.2901" x2="14.6984" y2="29.5592" gradientUnits="userSpaceOnUse">
<stop stop-color="#DC2626"/>
<stop offset="1" stop-color="#FA603E"/>
</linearGradient>
<linearGradient id="paint16_linear_334_7131" x1="27.4348" y1="48" x2="26.2492" y2="44.0278" gradientUnits="userSpaceOnUse">
<stop stop-color="#DC2626"/>
<stop offset="1" stop-color="#FA603E"/>
</linearGradient>
<linearGradient id="paint17_linear_334_7131" x1="27.4348" y1="43.44" x2="26.2349" y2="39.446" gradientUnits="userSpaceOnUse">
<stop stop-color="#DC2626"/>
<stop offset="1" stop-color="#FA603E"/>
</linearGradient>
<linearGradient id="paint18_linear_334_7131" x1="20.5799" y1="45.7199" x2="18.9676" y2="42.1149" gradientUnits="userSpaceOnUse">
<stop stop-color="#DC2626"/>
<stop offset="1" stop-color="#FA603E"/>
</linearGradient>
<linearGradient id="paint19_linear_334_7131" x1="20.5799" y1="41.145" x2="18.9676" y2="37.54" gradientUnits="userSpaceOnUse">
<stop stop-color="#DC2626"/>
<stop offset="1" stop-color="#FA603E"/>
</linearGradient>
<linearGradient id="paint20_linear_334_7131" x1="20.5799" y1="29.7151" x2="18.4311" y2="27.3048" gradientUnits="userSpaceOnUse">
<stop stop-color="#DC2626"/>
<stop offset="1" stop-color="#FA603E"/>
</linearGradient>
<linearGradient id="paint21_linear_334_7131" x1="20.5799" y1="22.8599" x2="16.8828" y2="20.7932" gradientUnits="userSpaceOnUse">
<stop stop-color="#DC2626"/>
<stop offset="1" stop-color="#FA603E"/>
</linearGradient>
<linearGradient id="paint22_linear_334_7131" x1="32.0099" y1="6.86995" x2="31.4587" y2="2.58635" gradientUnits="userSpaceOnUse">
<stop stop-color="#DC2626"/>
<stop offset="1" stop-color="#FA603E"/>
</linearGradient>
<linearGradient id="paint23_linear_334_7131" x1="32.0099" y1="2.295" x2="31.4587" y2="-1.9886" gradientUnits="userSpaceOnUse">
<stop stop-color="#DC2626"/>
<stop offset="1" stop-color="#FA603E"/>
</linearGradient>
<linearGradient id="paint24_linear_334_7131" x1="16.005" y1="43.44" x2="13.8404" y2="41.028" gradientUnits="userSpaceOnUse">
<stop stop-color="#DC2626"/>
<stop offset="1" stop-color="#FA603E"/>
</linearGradient>
<linearGradient id="paint25_linear_334_7131" x1="16.005" y1="38.865" x2="13.8561" y2="36.4547" gradientUnits="userSpaceOnUse">
<stop stop-color="#DC2626"/>
<stop offset="1" stop-color="#FA603E"/>
</linearGradient>
<linearGradient id="paint26_linear_334_7131" x1="16.0049" y1="9.15012" x2="14.3927" y2="5.5451" gradientUnits="userSpaceOnUse">
<stop stop-color="#DC2626"/>
<stop offset="1" stop-color="#FA603E"/>
</linearGradient>
<linearGradient id="paint27_linear_334_7131" x1="16.0049" y1="4.57492" x2="14.3927" y2="0.969902" gradientUnits="userSpaceOnUse">
<stop stop-color="#DC2626"/>
<stop offset="1" stop-color="#FA603E"/>
</linearGradient>
<linearGradient id="paint28_linear_334_7131" x1="13.7099" y1="41.145" x2="11.5595" y2="38.7487" gradientUnits="userSpaceOnUse">
<stop stop-color="#DC2626"/>
<stop offset="1" stop-color="#FA603E"/>
</linearGradient>
<linearGradient id="paint29_linear_334_7131" x1="13.7099" y1="36.585" x2="10.0255" y2="34.5389" gradientUnits="userSpaceOnUse">
<stop stop-color="#DC2626"/>
<stop offset="1" stop-color="#FA603E"/>
</linearGradient>
<linearGradient id="paint30_linear_334_7131" x1="11.4299" y1="38.865" x2="9.27948" y2="36.4687" gradientUnits="userSpaceOnUse">
<stop stop-color="#DC2626"/>
<stop offset="1" stop-color="#FA603E"/>
</linearGradient>
<linearGradient id="paint31_linear_334_7131" x1="11.4299" y1="32.0099" x2="6.66805" y2="31.4807" gradientUnits="userSpaceOnUse">
<stop stop-color="#DC2626"/>
<stop offset="1" stop-color="#FA603E"/>
</linearGradient>
<linearGradient id="paint32_linear_334_7131" x1="11.43" y1="6.86995" x2="9.80001" y2="3.24918" gradientUnits="userSpaceOnUse">
<stop stop-color="#DC2626"/>
<stop offset="1" stop-color="#FA603E"/>
</linearGradient>
<linearGradient id="paint33_linear_334_7131" x1="9.14998" y1="36.585" x2="5.45284" y2="34.5183" gradientUnits="userSpaceOnUse">
<stop stop-color="#DC2626"/>
<stop offset="1" stop-color="#FA603E"/>
</linearGradient>
<linearGradient id="paint34_linear_334_7131" x1="6.85495" y1="32.0101" x2="2.08302" y2="31.5279" gradientUnits="userSpaceOnUse">
<stop stop-color="#DC2626"/>
<stop offset="1" stop-color="#FA603E"/>
</linearGradient>
</defs>
</svg>
