<svg width="48" height="48" viewBox="0 0 48 48" fill="none" xmlns="http://www.w3.org/2000/svg">
<g clip-path="url(#clip0_340_10066)">
<path d="M45.72 43.425H48V48H45.72V43.425Z" fill="url(#paint0_linear_340_10066)"/>
<path d="M45.72 16.0049H48V18.2849H45.72V16.0049Z" fill="url(#paint1_linear_340_10066)"/>
<path d="M43.4399 38.865H45.7199V43.425H43.4399V38.865Z" fill="url(#paint2_linear_340_10066)"/>
<path d="M43.4399 13.71H45.7199V16.005H43.4399V13.71Z" fill="url(#paint3_linear_340_10066)"/>
<path d="M41.145 34.29H43.44V38.865H41.145V34.29Z" fill="url(#paint4_linear_340_10066)"/>
<path d="M38.865 18.2849H45.72V20.5799H38.865V18.2849Z" fill="url(#paint5_linear_340_10066)"/>
<path d="M41.145 11.4299H43.44V13.7099H41.145V11.4299Z" fill="url(#paint6_linear_340_10066)"/>
<path d="M38.8649 29.715V25.14H36.5849V20.58H34.2899V16.005H32.0099V13.71H29.7149V9.15H38.8649V6.855H36.5849V4.575H34.2899V6.855H29.7149V2.295H32.0099V0H27.4349V13.71H25.1549V16.005H22.8599V20.58H20.5799V25.14H18.2849V29.715H16.0049V34.29H20.5799V36.57H27.4349V34.29H34.2899V32.01H38.8649V34.29H41.1449V29.715H38.8649ZM25.1549 34.29H22.8599V32.01H25.1549V34.29ZM32.0099 32.01H29.7149V29.715H27.4349V27.435H29.7149V29.715H32.0099V32.01ZM32.0099 22.86H29.7149V18.285H27.4349V16.005H29.7149V18.285H32.0099V22.86ZM36.5849 29.715H34.2899V27.435H36.5849V29.715Z" fill="url(#paint7_linear_340_10066)"/>
<path d="M38.865 13.71H41.145V16.005H38.865V13.71Z" fill="url(#paint8_linear_340_10066)"/>
<path d="M36.585 16.0049H38.865V18.2849H36.585V16.0049Z" fill="url(#paint9_linear_340_10066)"/>
<path d="M32.01 2.29492H34.29V4.57492H32.01V2.29492Z" fill="url(#paint10_linear_340_10066)"/>
<path d="M13.7251 34.29H16.0051V38.865H13.7251V34.29Z" fill="url(#paint11_linear_340_10066)"/>
<path d="M13.7251 9.1499H16.0051V11.4299H13.7251V9.1499Z" fill="url(#paint12_linear_340_10066)"/>
<path d="M11.4299 38.865H13.7249V43.425H11.4299V38.865Z" fill="url(#paint13_linear_340_10066)"/>
<path d="M11.4299 6.85498H13.7249V9.14998H11.4299V6.85498Z" fill="url(#paint14_linear_340_10066)"/>
<path d="M9.1499 43.425H11.4299V48H9.1499V43.425Z" fill="url(#paint15_linear_340_10066)"/>
<path d="M9.1499 36.5701H11.4299V38.8651H9.1499V36.5701Z" fill="url(#paint16_linear_340_10066)"/>
<path d="M2.29492 11.4299H13.7249V13.7099H2.29492V11.4299Z" fill="url(#paint17_linear_340_10066)"/>
<path d="M6.87012 4.57495H11.4301V6.85495H6.87012V4.57495Z" fill="url(#paint18_linear_340_10066)"/>
<path d="M6.87012 34.29H9.15012V36.57H6.87012V34.29Z" fill="url(#paint19_linear_340_10066)"/>
<path d="M4.57495 36.5701H6.86995V38.8651H4.57495V36.5701Z" fill="url(#paint20_linear_340_10066)"/>
<path d="M2.29492 6.85498H6.86992V9.14998H2.29492V6.85498Z" fill="url(#paint21_linear_340_10066)"/>
<path d="M2.29492 38.865H4.57492V43.425H2.29492V38.865Z" fill="url(#paint22_linear_340_10066)"/>
<path d="M0 43.425H2.295V48H0V43.425Z" fill="url(#paint23_linear_340_10066)"/>
<path d="M0 9.1499H2.295V11.4299H0V9.1499Z" fill="url(#paint24_linear_340_10066)"/>
</g>
<defs>
<linearGradient id="paint0_linear_340_10066" x1="48" y1="48" x2="44.3156" y2="45.954" gradientUnits="userSpaceOnUse">
<stop stop-color="#DC2626"/>
<stop offset="1" stop-color="#FA603E"/>
</linearGradient>
<linearGradient id="paint1_linear_340_10066" x1="48" y1="18.2849" x2="45.8495" y2="15.8886" gradientUnits="userSpaceOnUse">
<stop stop-color="#DC2626"/>
<stop offset="1" stop-color="#FA603E"/>
</linearGradient>
<linearGradient id="paint2_linear_340_10066" x1="45.7199" y1="43.425" x2="42.0413" y2="41.3754" gradientUnits="userSpaceOnUse">
<stop stop-color="#DC2626"/>
<stop offset="1" stop-color="#FA603E"/>
</linearGradient>
<linearGradient id="paint3_linear_340_10066" x1="45.7199" y1="16.005" x2="43.5539" y2="13.607" gradientUnits="userSpaceOnUse">
<stop stop-color="#DC2626"/>
<stop offset="1" stop-color="#FA603E"/>
</linearGradient>
<linearGradient id="paint4_linear_340_10066" x1="43.44" y1="38.865" x2="39.7429" y2="36.7984" gradientUnits="userSpaceOnUse">
<stop stop-color="#DC2626"/>
<stop offset="1" stop-color="#FA603E"/>
</linearGradient>
<linearGradient id="paint5_linear_340_10066" x1="45.72" y1="20.5799" x2="44.52" y2="16.5859" gradientUnits="userSpaceOnUse">
<stop stop-color="#DC2626"/>
<stop offset="1" stop-color="#FA603E"/>
</linearGradient>
<linearGradient id="paint6_linear_340_10066" x1="43.44" y1="13.7099" x2="41.2912" y2="11.2996" gradientUnits="userSpaceOnUse">
<stop stop-color="#DC2626"/>
<stop offset="1" stop-color="#FA603E"/>
</linearGradient>
<linearGradient id="paint7_linear_340_10066" x1="41.1449" y1="36.57" x2="7.64763" y2="10.9096" gradientUnits="userSpaceOnUse">
<stop stop-color="#DC2626"/>
<stop offset="1" stop-color="#FA603E"/>
</linearGradient>
<linearGradient id="paint8_linear_340_10066" x1="41.145" y1="16.005" x2="38.9789" y2="13.607" gradientUnits="userSpaceOnUse">
<stop stop-color="#DC2626"/>
<stop offset="1" stop-color="#FA603E"/>
</linearGradient>
<linearGradient id="paint9_linear_340_10066" x1="38.865" y1="18.2849" x2="36.7145" y2="15.8886" gradientUnits="userSpaceOnUse">
<stop stop-color="#DC2626"/>
<stop offset="1" stop-color="#FA603E"/>
</linearGradient>
<linearGradient id="paint10_linear_340_10066" x1="34.29" y1="4.57492" x2="32.1396" y2="2.17864" gradientUnits="userSpaceOnUse">
<stop stop-color="#DC2626"/>
<stop offset="1" stop-color="#FA603E"/>
</linearGradient>
<linearGradient id="paint11_linear_340_10066" x1="16.0051" y1="38.865" x2="12.3207" y2="36.819" gradientUnits="userSpaceOnUse">
<stop stop-color="#DC2626"/>
<stop offset="1" stop-color="#FA603E"/>
</linearGradient>
<linearGradient id="paint12_linear_340_10066" x1="16.0051" y1="11.4299" x2="13.8547" y2="9.03362" gradientUnits="userSpaceOnUse">
<stop stop-color="#DC2626"/>
<stop offset="1" stop-color="#FA603E"/>
</linearGradient>
<linearGradient id="paint13_linear_340_10066" x1="13.7249" y1="43.425" x2="10.0336" y2="41.3548" gradientUnits="userSpaceOnUse">
<stop stop-color="#DC2626"/>
<stop offset="1" stop-color="#FA603E"/>
</linearGradient>
<linearGradient id="paint14_linear_340_10066" x1="13.7249" y1="9.14998" x2="11.5604" y2="6.73793" gradientUnits="userSpaceOnUse">
<stop stop-color="#DC2626"/>
<stop offset="1" stop-color="#FA603E"/>
</linearGradient>
<linearGradient id="paint15_linear_340_10066" x1="11.4299" y1="48" x2="7.7455" y2="45.954" gradientUnits="userSpaceOnUse">
<stop stop-color="#DC2626"/>
<stop offset="1" stop-color="#FA603E"/>
</linearGradient>
<linearGradient id="paint16_linear_340_10066" x1="11.4299" y1="38.8651" x2="9.26384" y2="36.4671" gradientUnits="userSpaceOnUse">
<stop stop-color="#DC2626"/>
<stop offset="1" stop-color="#FA603E"/>
</linearGradient>
<linearGradient id="paint17_linear_340_10066" x1="13.7249" y1="13.7099" x2="12.9746" y2="9.51818" gradientUnits="userSpaceOnUse">
<stop stop-color="#DC2626"/>
<stop offset="1" stop-color="#FA603E"/>
</linearGradient>
<linearGradient id="paint18_linear_340_10066" x1="11.4301" y1="6.85495" x2="9.81432" y2="3.25389" gradientUnits="userSpaceOnUse">
<stop stop-color="#DC2626"/>
<stop offset="1" stop-color="#FA603E"/>
</linearGradient>
<linearGradient id="paint19_linear_340_10066" x1="9.15012" y1="36.57" x2="6.99969" y2="34.1738" gradientUnits="userSpaceOnUse">
<stop stop-color="#DC2626"/>
<stop offset="1" stop-color="#FA603E"/>
</linearGradient>
<linearGradient id="paint20_linear_340_10066" x1="6.86995" y1="38.8651" x2="4.70538" y2="36.453" gradientUnits="userSpaceOnUse">
<stop stop-color="#DC2626"/>
<stop offset="1" stop-color="#FA603E"/>
</linearGradient>
<linearGradient id="paint21_linear_340_10066" x1="6.86992" y1="9.14998" x2="5.23995" y2="5.52921" gradientUnits="userSpaceOnUse">
<stop stop-color="#DC2626"/>
<stop offset="1" stop-color="#FA603E"/>
</linearGradient>
<linearGradient id="paint22_linear_340_10066" x1="4.57492" y1="43.425" x2="0.896234" y2="41.3754" gradientUnits="userSpaceOnUse">
<stop stop-color="#DC2626"/>
<stop offset="1" stop-color="#FA603E"/>
</linearGradient>
<linearGradient id="paint23_linear_340_10066" x1="2.295" y1="48" x2="-1.40214" y2="45.9334" gradientUnits="userSpaceOnUse">
<stop stop-color="#DC2626"/>
<stop offset="1" stop-color="#FA603E"/>
</linearGradient>
<linearGradient id="paint24_linear_340_10066" x1="2.295" y1="11.4299" x2="0.146141" y2="9.01961" gradientUnits="userSpaceOnUse">
<stop stop-color="#DC2626"/>
<stop offset="1" stop-color="#FA603E"/>
</linearGradient>
<clipPath id="clip0_340_10066">
<rect width="48" height="48" fill="white"/>
</clipPath>
</defs>
</svg>
