<svg width="25" height="24" viewBox="0 0 25 24" fill="none" xmlns="http://www.w3.org/2000/svg">
<path d="M6.6897 8.5H2.6897C2.41355 8.5 2.1897 8.72386 2.1897 9V22C2.1897 22.2761 2.41355 22.5 2.6897 22.5H6.6897C6.96584 22.5 7.1897 22.2761 7.1897 22V9C7.1897 8.72386 6.96584 8.5 6.6897 8.5Z" fill="white"/>
<path d="M4.66972 6.50004C5.165 6.50401 5.6503 6.36076 6.06405 6.08847C6.4778 5.81619 6.80134 5.42714 6.99363 4.97069C7.18592 4.51424 7.23829 4.01096 7.14409 3.52469C7.0499 3.03843 6.81339 2.5911 6.46457 2.23947C6.11575 1.88783 5.67034 1.64774 5.18485 1.54964C4.69936 1.45155 4.19567 1.49988 3.73769 1.68849C3.2797 1.87711 2.88807 2.19752 2.61247 2.60906C2.33687 3.02061 2.18973 3.50474 2.18972 4.00004C2.1884 4.32704 2.25151 4.65108 2.37543 4.95369C2.49935 5.25629 2.68165 5.53153 2.91194 5.76367C3.14223 5.99582 3.41599 6.18034 3.71759 6.30668C4.01919 6.43303 4.34273 6.49873 4.66972 6.50004V6.50004Z" fill="white"/>
<path d="M18.6897 22.5H21.6897C21.8223 22.5 21.9495 22.4473 22.0433 22.3535C22.137 22.2598 22.1897 22.1326 22.1897 22V13.6C22.1897 9.82998 20.0597 7.99998 17.0797 7.99998C16.4896 7.97899 15.9016 8.08206 15.3539 8.30255C14.8061 8.52303 14.3107 8.85602 13.8997 9.27998C13.8438 9.34063 13.7702 9.38201 13.6893 9.39818C13.6085 9.41435 13.5246 9.40448 13.4497 9.36998C13.3741 9.34174 13.3088 9.29129 13.2624 9.22525C13.216 9.15922 13.1906 9.08069 13.1897 8.99998C13.1897 8.86738 13.137 8.7402 13.0433 8.64643C12.9495 8.55266 12.8223 8.49998 12.6897 8.49998H9.6897C9.55709 8.49998 9.42991 8.55266 9.33614 8.64643C9.24238 8.7402 9.1897 8.86738 9.1897 8.99998V22C9.1897 22.1326 9.24238 22.2598 9.33614 22.3535C9.42991 22.4473 9.55709 22.5 9.6897 22.5H12.6897C12.8223 22.5 12.9495 22.4473 13.0433 22.3535C13.137 22.2598 13.1897 22.1326 13.1897 22V14.5C13.1897 13.8369 13.4531 13.2011 13.9219 12.7322C14.3908 12.2634 15.0267 12 15.6897 12C16.3527 12 16.9886 12.2634 17.4575 12.7322C17.9263 13.2011 18.1897 13.8369 18.1897 14.5V22C18.1897 22.1326 18.2424 22.2598 18.3361 22.3535C18.4299 22.4473 18.5571 22.5 18.6897 22.5Z" fill="white"/>
</svg>
