<svg width="24" height="24" viewBox="0 0 24 24" fill="none" xmlns="http://www.w3.org/2000/svg">
<path d="M24 2.28748H22.8525V21.7125H24V2.28748Z" fill="white"/>
<path d="M22.8529 21.7125H21.7129V22.86H22.8529V21.7125Z" fill="white"/>
<path d="M22.8529 1.14001H21.7129V2.28751H22.8529V1.14001Z" fill="white"/>
<path d="M21.712 3.42749H20.5645V20.5725H21.712V3.42749Z" fill="white"/>
<path d="M21.7118 22.86H2.2793V24H21.7118V22.86Z" fill="white"/>
<path d="M20.5652 20.5725H3.42773V21.7125H20.5652V20.5725Z" fill="white"/>
<path d="M17.1382 11.43H15.9982V10.2825H13.7107V11.43H12.5707V10.2825H10.2832V17.145H12.5707V13.7175H13.7107V12.57H14.8582V13.7175H15.9982V17.145H18.2857V12.57H17.1382V11.43Z" fill="white"/>
<path d="M7.99453 10.2825H5.70703V17.145H7.99453V10.2825Z" fill="white"/>
<path d="M7.99453 6.85498H5.70703V9.14248H7.99453V6.85498Z" fill="white"/>
<path d="M20.5652 2.28748H3.42773V3.42748H20.5652V2.28748Z" fill="white"/>
<path d="M21.7118 0H2.2793V1.14H21.7118V0Z" fill="white"/>
<path d="M3.4268 3.42749H2.2793V20.5725H3.4268V3.42749Z" fill="white"/>
<path d="M2.28062 21.7125H1.14062V22.86H2.28062V21.7125Z" fill="white"/>
<path d="M2.28062 1.14001H1.14062V2.28751H2.28062V1.14001Z" fill="white"/>
<path d="M1.14 2.28748H0V21.7125H1.14V2.28748Z" fill="white"/>
</svg>
