<svg width="48" height="48" viewBox="0 0 48 48" fill="none" xmlns="http://www.w3.org/2000/svg">
<g clip-path="url(#clip0_334_7094)">
<path d="M45.72 11.4299H48V13.7099H45.72V11.4299Z" fill="url(#paint0_linear_334_7094)"/>
<path d="M41.145 22.8601V25.1401H36.585V27.4351H41.145V41.1451H32.01V43.4251H41.145V45.7201H48V22.8601H41.145Z" fill="url(#paint1_linear_334_7094)"/>
<path d="M43.4399 13.71H45.7199V16.005H43.4399V13.71Z" fill="url(#paint2_linear_334_7094)"/>
<path d="M41.145 11.4299H43.44V13.7099H41.145V11.4299Z" fill="url(#paint3_linear_334_7094)"/>
<path d="M38.865 13.71H41.145V16.005H38.865V13.71Z" fill="url(#paint4_linear_334_7094)"/>
<path d="M38.865 2.29492H41.145V4.57492H38.865V2.29492Z" fill="url(#paint5_linear_334_7094)"/>
<path d="M36.585 11.4299H38.865V13.7099H36.585V11.4299Z" fill="url(#paint6_linear_334_7094)"/>
<path d="M34.29 22.8601H36.585V25.1401H34.29V22.8601Z" fill="url(#paint7_linear_334_7094)"/>
<path d="M32.01 20.5801H34.29V22.8601H32.01V20.5801Z" fill="url(#paint8_linear_334_7094)"/>
<path d="M32.01 34.29H29.715V38.865H25.155V43.425H27.435V41.145H32.01V34.29Z" fill="url(#paint9_linear_334_7094)"/>
<path d="M27.4351 32.01H29.7151V34.29H27.4351V32.01Z" fill="url(#paint10_linear_334_7094)"/>
<path d="M27.4351 4.57495H29.7151V6.85495H27.4351V4.57495Z" fill="url(#paint11_linear_334_7094)"/>
<path d="M25.155 29.7151H27.435V32.0101H25.155V29.7151Z" fill="url(#paint12_linear_334_7094)"/>
<path d="M25.155 25.1399H27.435V27.4349H25.155V25.1399Z" fill="url(#paint13_linear_334_7094)"/>
<path d="M22.8601 18.2849H32.0101V20.5799H22.8601V18.2849Z" fill="url(#paint14_linear_334_7094)"/>
<path d="M25.155 6.85498H27.435V9.14998H25.155V6.85498Z" fill="url(#paint15_linear_334_7094)"/>
<path d="M25.155 2.29492H27.435V4.57492H25.155V2.29492Z" fill="url(#paint16_linear_334_7094)"/>
<path d="M22.8601 36.5701H25.1551V38.8651H22.8601V36.5701Z" fill="url(#paint17_linear_334_7094)"/>
<path d="M22.8601 27.4351H25.1551V29.7151H22.8601V27.4351Z" fill="url(#paint18_linear_334_7094)"/>
<path d="M22.8601 4.57495H25.1551V6.85495H22.8601V4.57495Z" fill="url(#paint19_linear_334_7094)"/>
<path d="M20.5801 45.72H13.7251V48H22.8601V45.72H25.1551V43.425H20.5801V45.72Z" fill="url(#paint20_linear_334_7094)"/>
<path d="M20.5801 20.5801H22.8601V22.8601H20.5801V20.5801Z" fill="url(#paint21_linear_334_7094)"/>
<path d="M18.2849 41.145H20.5799V43.425H18.2849V41.145Z" fill="url(#paint22_linear_334_7094)"/>
<path d="M18.2849 29.7151H22.8599V32.0101H18.2849V29.7151Z" fill="url(#paint23_linear_334_7094)"/>
<path d="M18.2849 22.8601H20.5799V25.1401H18.2849V22.8601Z" fill="url(#paint24_linear_334_7094)"/>
<path d="M16.0049 18.2849H20.5799V20.5799H16.0049V18.2849Z" fill="url(#paint25_linear_334_7094)"/>
<path d="M16.0049 38.865H18.2849V41.145H16.0049V38.865Z" fill="url(#paint26_linear_334_7094)"/>
<path d="M16.0049 25.1399H18.2849V29.7149H16.0049V25.1399Z" fill="url(#paint27_linear_334_7094)"/>
<path d="M16.0049 9.1499H18.2849V11.4299H16.0049V9.1499Z" fill="url(#paint28_linear_334_7094)"/>
<path d="M13.7251 20.5801H16.0051V22.8601H13.7251V20.5801Z" fill="url(#paint29_linear_334_7094)"/>
<path d="M11.4299 43.425H13.7249V45.72H11.4299V43.425Z" fill="url(#paint30_linear_334_7094)"/>
<path d="M11.4299 22.8601H13.7249V25.1401H11.4299V22.8601Z" fill="url(#paint31_linear_334_7094)"/>
<path d="M6.87 41.1451V27.4351H11.43V25.1401H6.87V22.8601H0V45.7201H6.87V43.4251H11.43V41.1451H6.87Z" fill="url(#paint32_linear_334_7094)"/>
<path d="M9.1499 0H11.4299V2.295H9.1499V0Z" fill="url(#paint33_linear_334_7094)"/>
<path d="M6.86992 18.2849V16.0049H9.14992V13.7099H6.86992V11.4299H4.57492V13.7099H2.29492V16.0049H4.57492V18.2849H6.86992Z" fill="url(#paint34_linear_334_7094)"/>
</g>
<defs>
<linearGradient id="paint0_linear_334_7094" x1="48" y1="13.7099" x2="45.8495" y2="11.3137" gradientUnits="userSpaceOnUse">
<stop stop-color="#DC2626"/>
<stop offset="1" stop-color="#FA603E"/>
</linearGradient>
<linearGradient id="paint1_linear_334_7094" x1="48" y1="45.7201" x2="26.969" y2="29.3276" gradientUnits="userSpaceOnUse">
<stop stop-color="#DC2626"/>
<stop offset="1" stop-color="#FA603E"/>
</linearGradient>
<linearGradient id="paint2_linear_334_7094" x1="45.7199" y1="16.005" x2="43.5539" y2="13.607" gradientUnits="userSpaceOnUse">
<stop stop-color="#DC2626"/>
<stop offset="1" stop-color="#FA603E"/>
</linearGradient>
<linearGradient id="paint3_linear_334_7094" x1="43.44" y1="13.7099" x2="41.2912" y2="11.2996" gradientUnits="userSpaceOnUse">
<stop stop-color="#DC2626"/>
<stop offset="1" stop-color="#FA603E"/>
</linearGradient>
<linearGradient id="paint4_linear_334_7094" x1="41.145" y1="16.005" x2="38.9789" y2="13.607" gradientUnits="userSpaceOnUse">
<stop stop-color="#DC2626"/>
<stop offset="1" stop-color="#FA603E"/>
</linearGradient>
<linearGradient id="paint5_linear_334_7094" x1="41.145" y1="4.57492" x2="38.9946" y2="2.17864" gradientUnits="userSpaceOnUse">
<stop stop-color="#DC2626"/>
<stop offset="1" stop-color="#FA603E"/>
</linearGradient>
<linearGradient id="paint6_linear_334_7094" x1="38.865" y1="13.7099" x2="36.7145" y2="11.3137" gradientUnits="userSpaceOnUse">
<stop stop-color="#DC2626"/>
<stop offset="1" stop-color="#FA603E"/>
</linearGradient>
<linearGradient id="paint7_linear_334_7094" x1="36.585" y1="25.1401" x2="34.4362" y2="22.7298" gradientUnits="userSpaceOnUse">
<stop stop-color="#DC2626"/>
<stop offset="1" stop-color="#FA603E"/>
</linearGradient>
<linearGradient id="paint8_linear_334_7094" x1="34.29" y1="22.8601" x2="32.1396" y2="20.4638" gradientUnits="userSpaceOnUse">
<stop stop-color="#DC2626"/>
<stop offset="1" stop-color="#FA603E"/>
</linearGradient>
<linearGradient id="paint9_linear_334_7094" x1="32.01" y1="43.425" x2="23.4805" y2="36.2926" gradientUnits="userSpaceOnUse">
<stop stop-color="#DC2626"/>
<stop offset="1" stop-color="#FA603E"/>
</linearGradient>
<linearGradient id="paint10_linear_334_7094" x1="29.7151" y1="34.29" x2="27.5646" y2="31.8937" gradientUnits="userSpaceOnUse">
<stop stop-color="#DC2626"/>
<stop offset="1" stop-color="#FA603E"/>
</linearGradient>
<linearGradient id="paint11_linear_334_7094" x1="29.7151" y1="6.85495" x2="27.5646" y2="4.45867" gradientUnits="userSpaceOnUse">
<stop stop-color="#DC2626"/>
<stop offset="1" stop-color="#FA603E"/>
</linearGradient>
<linearGradient id="paint12_linear_334_7094" x1="27.435" y1="32.0101" x2="25.269" y2="29.6122" gradientUnits="userSpaceOnUse">
<stop stop-color="#DC2626"/>
<stop offset="1" stop-color="#FA603E"/>
</linearGradient>
<linearGradient id="paint13_linear_334_7094" x1="27.435" y1="27.4349" x2="25.269" y2="25.037" gradientUnits="userSpaceOnUse">
<stop stop-color="#DC2626"/>
<stop offset="1" stop-color="#FA603E"/>
</linearGradient>
<linearGradient id="paint14_linear_334_7094" x1="32.0101" y1="20.5799" x2="31.0772" y2="16.4354" gradientUnits="userSpaceOnUse">
<stop stop-color="#DC2626"/>
<stop offset="1" stop-color="#FA603E"/>
</linearGradient>
<linearGradient id="paint15_linear_334_7094" x1="27.435" y1="9.14998" x2="25.269" y2="6.75205" gradientUnits="userSpaceOnUse">
<stop stop-color="#DC2626"/>
<stop offset="1" stop-color="#FA603E"/>
</linearGradient>
<linearGradient id="paint16_linear_334_7094" x1="27.435" y1="4.57492" x2="25.2846" y2="2.17864" gradientUnits="userSpaceOnUse">
<stop stop-color="#DC2626"/>
<stop offset="1" stop-color="#FA603E"/>
</linearGradient>
<linearGradient id="paint17_linear_334_7094" x1="25.1551" y1="38.8651" x2="22.9905" y2="36.453" gradientUnits="userSpaceOnUse">
<stop stop-color="#DC2626"/>
<stop offset="1" stop-color="#FA603E"/>
</linearGradient>
<linearGradient id="paint18_linear_334_7094" x1="25.1551" y1="29.7151" x2="23.0063" y2="27.3048" gradientUnits="userSpaceOnUse">
<stop stop-color="#DC2626"/>
<stop offset="1" stop-color="#FA603E"/>
</linearGradient>
<linearGradient id="paint19_linear_334_7094" x1="25.1551" y1="6.85495" x2="23.0062" y2="4.44466" gradientUnits="userSpaceOnUse">
<stop stop-color="#DC2626"/>
<stop offset="1" stop-color="#FA603E"/>
</linearGradient>
<linearGradient id="paint20_linear_334_7094" x1="25.1551" y1="48" x2="22.3934" y2="40.3114" gradientUnits="userSpaceOnUse">
<stop stop-color="#DC2626"/>
<stop offset="1" stop-color="#FA603E"/>
</linearGradient>
<linearGradient id="paint21_linear_334_7094" x1="22.8601" y1="22.8601" x2="20.7097" y2="20.4638" gradientUnits="userSpaceOnUse">
<stop stop-color="#DC2626"/>
<stop offset="1" stop-color="#FA603E"/>
</linearGradient>
<linearGradient id="paint22_linear_334_7094" x1="20.5799" y1="43.425" x2="18.4311" y2="41.0147" gradientUnits="userSpaceOnUse">
<stop stop-color="#DC2626"/>
<stop offset="1" stop-color="#FA603E"/>
</linearGradient>
<linearGradient id="paint23_linear_334_7094" x1="22.8599" y1="32.0101" x2="21.2299" y2="28.3893" gradientUnits="userSpaceOnUse">
<stop stop-color="#DC2626"/>
<stop offset="1" stop-color="#FA603E"/>
</linearGradient>
<linearGradient id="paint24_linear_334_7094" x1="20.5799" y1="25.1401" x2="18.4311" y2="22.7298" gradientUnits="userSpaceOnUse">
<stop stop-color="#DC2626"/>
<stop offset="1" stop-color="#FA603E"/>
</linearGradient>
<linearGradient id="paint25_linear_334_7094" x1="20.5799" y1="20.5799" x2="18.9499" y2="16.9591" gradientUnits="userSpaceOnUse">
<stop stop-color="#DC2626"/>
<stop offset="1" stop-color="#FA603E"/>
</linearGradient>
<linearGradient id="paint26_linear_334_7094" x1="18.2849" y1="41.145" x2="16.1345" y2="38.7487" gradientUnits="userSpaceOnUse">
<stop stop-color="#DC2626"/>
<stop offset="1" stop-color="#FA603E"/>
</linearGradient>
<linearGradient id="paint27_linear_334_7094" x1="18.2849" y1="29.7149" x2="14.6005" y2="27.6688" gradientUnits="userSpaceOnUse">
<stop stop-color="#DC2626"/>
<stop offset="1" stop-color="#FA603E"/>
</linearGradient>
<linearGradient id="paint28_linear_334_7094" x1="18.2849" y1="11.4299" x2="16.1345" y2="9.03362" gradientUnits="userSpaceOnUse">
<stop stop-color="#DC2626"/>
<stop offset="1" stop-color="#FA603E"/>
</linearGradient>
<linearGradient id="paint29_linear_334_7094" x1="16.0051" y1="22.8601" x2="13.8547" y2="20.4638" gradientUnits="userSpaceOnUse">
<stop stop-color="#DC2626"/>
<stop offset="1" stop-color="#FA603E"/>
</linearGradient>
<linearGradient id="paint30_linear_334_7094" x1="13.7249" y1="45.72" x2="11.5604" y2="43.308" gradientUnits="userSpaceOnUse">
<stop stop-color="#DC2626"/>
<stop offset="1" stop-color="#FA603E"/>
</linearGradient>
<linearGradient id="paint31_linear_334_7094" x1="13.7249" y1="25.1401" x2="11.5761" y2="22.7298" gradientUnits="userSpaceOnUse">
<stop stop-color="#DC2626"/>
<stop offset="1" stop-color="#FA603E"/>
</linearGradient>
<linearGradient id="paint32_linear_334_7094" x1="11.43" y1="45.7201" x2="-7.01184" y2="35.445" gradientUnits="userSpaceOnUse">
<stop stop-color="#DC2626"/>
<stop offset="1" stop-color="#FA603E"/>
</linearGradient>
<linearGradient id="paint33_linear_334_7094" x1="11.4299" y1="2.295" x2="9.26384" y2="-0.102925" gradientUnits="userSpaceOnUse">
<stop stop-color="#DC2626"/>
<stop offset="1" stop-color="#FA603E"/>
</linearGradient>
<linearGradient id="paint34_linear_334_7094" x1="9.14992" y1="18.2849" x2="2.6845" y2="11.0803" gradientUnits="userSpaceOnUse">
<stop stop-color="#DC2626"/>
<stop offset="1" stop-color="#FA603E"/>
</linearGradient>
<clipPath id="clip0_334_7094">
<rect width="48" height="48" fill="white"/>
</clipPath>
</defs>
</svg>
