<svg width="49" height="48" viewBox="0 0 49 48" fill="none" xmlns="http://www.w3.org/2000/svg">
<g clip-path="url(#clip0_412_1888)">
<path d="M41.6443 6.85498V9.14998H46.2043V20.58H39.3493V22.86H30.2143V25.14H21.0643V27.435H14.2093V29.715H2.7793V32.01H5.0743V34.29H25.6393V32.01H23.3593V29.715H27.9193V27.435H34.7893V29.715H37.0693V32.01H39.3493V27.435H43.9243V25.14H46.2043V22.86H48.4993V6.85498H41.6443Z" fill="#DC2626"/>
<path d="M46.2058 36.5701H43.9258V41.1451H46.2058V36.5701Z" fill="#DC2626"/>
<path d="M43.9245 34.29H41.6445V36.57H43.9245V34.29Z" fill="#DC2626"/>
<path d="M43.9246 41.145H39.3496V43.425H43.9246V41.145Z" fill="#DC2626"/>
<path d="M41.6446 32.01H39.3496V34.29H41.6446V32.01Z" fill="#DC2626"/>
<path d="M41.6446 9.1499H39.3496V13.7099H41.6446V9.1499Z" fill="#DC2626"/>
<path d="M39.3491 38.865H34.7891V41.145H39.3491V38.865Z" fill="#DC2626"/>
<path d="M39.3503 13.71H37.0703V16.005H39.3503V13.71Z" fill="#DC2626"/>
<path d="M37.0691 6.85498H34.7891V11.43H37.0691V6.85498Z" fill="#DC2626"/>
<path d="M34.7898 36.5701H30.2148V38.8651H34.7898V36.5701Z" fill="#DC2626"/>
<path d="M34.7891 11.4299H32.4941V13.7099H34.7891V11.4299Z" fill="#DC2626"/>
<path d="M34.7898 4.57495H30.2148V6.85495H34.7898V4.57495Z" fill="#DC2626"/>
<path d="M30.2156 34.29H25.6406V36.57H30.2156V34.29Z" fill="#DC2626"/>
<path d="M30.2156 6.85498H25.6406V9.14998H30.2156V6.85498Z" fill="#DC2626"/>
<path d="M27.9206 20.5798H25.6406V22.8598H27.9206V20.5798Z" fill="#DC2626"/>
<path d="M25.6394 9.1499H23.3594V11.4299H25.6394V9.1499Z" fill="#DC2626"/>
<path d="M23.3595 20.5798H21.0645V22.8598H23.3595V20.5798Z" fill="#DC2626"/>
<path d="M23.3595 11.4299H21.0645V13.7099H23.3595V11.4299Z" fill="#DC2626"/>
<path d="M18.7852 20.5798H16.4902V22.8598H18.7852V20.5798Z" fill="#DC2626"/>
<path d="M11.9298 20.5798H9.63477V25.1398H11.9298V20.5798Z" fill="#DC2626"/>
<path d="M9.63422 18.285H37.0692V16.005H32.4942V13.71H30.2142V16.005H21.0642V13.71H18.7842V16.005H7.35422V18.285H5.07422V20.58H9.63422V18.285Z" fill="#DC2626"/>
<path d="M9.635 27.4349V25.1399H2.78V22.8599H0.5V29.7149H2.78V27.4349H9.635Z" fill="#DC2626"/>
<path d="M5.0743 20.5798H2.7793V22.8598H5.0743V20.5798Z" fill="#DC2626"/>
</g>
<defs>
<clipPath id="clip0_412_1888">
<rect width="48" height="48" fill="white" transform="translate(0.5)"/>
</clipPath>
</defs>
</svg>
