<svg width="48" height="48" viewBox="0 0 48 48" fill="none" xmlns="http://www.w3.org/2000/svg">
<g clip-path="url(#clip0_807_3270)">
<g clip-path="url(#clip1_807_3270)">
<path d="M46.0001 9.1499H43.7051V11.4299H46.0001V9.1499Z" fill="#DC2626"/>
<path d="M41.4245 22.8602V25.1402H39.1445V27.4352H41.4245V29.7152H39.1445V31.9952H41.4245V34.2902H39.1445V36.5702H43.7045V18.2852H41.4245V20.5652H39.1445V22.8602H41.4245Z" fill="#DC2626"/>
<path d="M43.7046 6.85498H36.8496V9.14998H43.7046V6.85498Z" fill="#DC2626"/>
<path d="M36.8496 11.4302V13.7102H39.1446V16.0052H41.4246V13.7102H43.7046V11.4302H36.8496Z" fill="#DC2626"/>
<path d="M43.7046 4.575V2.28H41.4246V0H39.1446V2.28H36.8496V4.575H43.7046Z" fill="#DC2626"/>
<path d="M39.1453 18.2852H34.5703V20.5652H39.1453V18.2852Z" fill="#DC2626"/>
<path d="M13.9898 22.86H18.5648V25.14H20.8598V27.435H25.4198V29.715H20.8598V31.995H25.4198V34.29H20.8598V36.57H25.4198V38.865H20.8598V41.145H25.4198V43.425H29.9948V41.145H34.5698V38.865H39.1448V36.57H34.5698V34.29H39.1448V31.995H34.5698V29.715H39.1448V27.435H34.5698V25.14H39.1448V22.86H34.5698V20.565H29.9948V18.285H25.4198V16.005H20.8598V13.71H16.2848V16.005H11.7098V18.285H7.13477V20.565H13.9898V22.86Z" fill="#DC2626"/>
<path d="M36.8503 4.5752H34.5703V6.8552H36.8503V4.5752Z" fill="#DC2626"/>
<path d="M34.5701 11.4302H29.9951V13.7102H34.5701V11.4302Z" fill="#DC2626"/>
<path d="M29.9949 9.1499H25.4199V11.4299H29.9949V9.1499Z" fill="#DC2626"/>
<path d="M25.4204 11.4302H20.8604V13.7102H25.4204V11.4302Z" fill="#DC2626"/>
<path d="M25.4204 43.4248H20.8604V45.7198H25.4204V43.4248Z" fill="#DC2626"/>
<path d="M20.8604 6.85498H18.5654V9.14998H20.8604V6.85498Z" fill="#DC2626"/>
<path d="M18.565 43.4251H20.86V41.1451H18.565V38.8651H20.86V36.5701H18.565V34.2901H20.86V31.9951H18.565V29.7151H20.86V27.4351H16.285V29.7151H11.71V31.9951H16.285V34.2901H11.71V36.5701H16.285V38.8651H11.71V41.1451H16.285V43.4251H11.71V45.7201H16.285V48.0001H20.86V45.7201H18.565V43.4251Z" fill="#DC2626"/>
<path d="M18.5652 0H13.9902V2.28H18.5652V0Z" fill="#DC2626"/>
<path d="M18.5652 9.1499H13.9902V11.4299H18.5652V9.1499Z" fill="#DC2626"/>
<path d="M18.5652 4.5752H13.9902V6.8552H18.5652V4.5752Z" fill="#DC2626"/>
<path d="M13.99 2.27979H11.71V4.57479H13.99V2.27979Z" fill="#DC2626"/>
<path d="M11.7098 41.145H7.13477V43.425H11.7098V41.145Z" fill="#DC2626"/>
<path d="M11.7098 27.4351H7.13477V29.7151H11.7098V27.4351Z" fill="#DC2626"/>
<path d="M11.7098 36.5698H7.13477V38.8648H11.7098V36.5698Z" fill="#DC2626"/>
<path d="M11.7098 31.9951H7.13477V34.2901H11.7098V31.9951Z" fill="#DC2626"/>
<path d="M9.42977 9.1499H7.13477V11.4299H9.42977V9.1499Z" fill="#DC2626"/>
<path d="M7.13457 38.8652H2.55957V41.1452H7.13457V38.8652Z" fill="#DC2626"/>
<path d="M7.13457 34.29H2.55957V36.57H7.13457V34.29Z" fill="#DC2626"/>
<path d="M7.13457 29.7148H2.55957V31.9948H7.13457V29.7148Z" fill="#DC2626"/>
<path d="M7.13457 25.1401H2.55957V27.4351H7.13457V25.1401Z" fill="#DC2626"/>
<path d="M7.13457 20.5649H2.55957V22.8599H7.13457V20.5649Z" fill="#DC2626"/>
<path d="M0.280273 11.4302V13.7102H2.56027V16.0052H4.85527V13.7102H7.13527V11.4302H0.280273Z" fill="#DC2626"/>
<path d="M7.13527 4.575V2.28H4.85527V0H2.56027V2.28H0.280273V4.575H7.13527Z" fill="#DC2626"/>
<path d="M2.56 36.5699H0.28V34.2899H2.56V31.9949H0.28V29.7149H2.56V27.4349H0.28V25.1399H2.56V22.8599H-2V38.8649H2.56V36.5699Z" fill="#DC2626"/>
<path d="M7.13527 6.85498H0.280273V9.14998H7.13527V6.85498Z" fill="#DC2626"/>
<path d="M0.28 4.5752H-2V6.8552H0.28V4.5752Z" fill="#DC2626"/>
</g>
</g>
<defs>
<clipPath id="clip0_807_3270">
<rect width="48" height="48" fill="white"/>
</clipPath>
<clipPath id="clip1_807_3270">
<rect width="48" height="48" fill="white" transform="translate(-2)"/>
</clipPath>
</defs>
</svg>
