<svg width="24" height="24" viewBox="0 0 24 24" fill="none" xmlns="http://www.w3.org/2000/svg">
<path d="M1.14 17.145H2.28V19.425H3.4275V20.5725H4.5675V21.7125H6.855V22.86H9.1425V24H14.8575V22.86H17.1375V21.7125H19.425V20.5725H20.565V19.425H21.7125V17.145H22.8525V14.8575H24V9.1425H22.8525V6.855H21.7125V4.5675H20.565V3.4275H19.425V2.2875H17.1375V1.14H14.8575V0H9.1425V1.14H6.855V2.2875H4.5675V3.4275H3.4275V4.5675H2.28V6.855H1.14V9.1425H0V14.8575H1.14V17.145ZM5.7075 6.855H6.855V8.0025H7.995V9.1425H9.1425V10.2825H11.4225V6.855H12.57V5.715H17.1375V6.855H18.285V9.1425H20.565V10.2825H19.425V11.43H18.285V14.8575H17.1375V17.145H15.9975V18.285H14.8575V19.425H6.855V18.285H7.995V17.145H9.1425V15.9975H10.2825V14.8575H7.995V13.7175H6.855V12.57H5.7075V6.855Z" fill="white"/>
<path d="M17.1374 8.0025H14.8574V10.2825H17.1374V8.0025Z" fill="white"/>
</svg>
