<svg width="25" height="24" viewBox="0 0 25 24" fill="none" xmlns="http://www.w3.org/2000/svg">
<g clip-path="url(#clip0_448_5255)">
<path d="M24.1589 12C24.1591 9.92069 23.619 7.877 22.5915 6.06928C21.564 4.26155 20.0844 2.75184 18.2978 1.68812C16.5111 0.624399 14.4787 0.0431827 12.3998 0.00144203C10.3209 -0.0402987 8.26684 0.458869 6.43894 1.45001V1.45001C4.54618 2.48839 2.96571 4.01425 1.86145 5.86934C0.757194 7.72442 0.169364 9.84117 0.158936 12C0.162573 14.7633 1.1198 17.4407 2.86894 19.58V19.58C4.43514 21.4956 6.55519 22.8801 8.93876 23.5441C11.3223 24.2081 13.8529 24.119 16.1839 23.2891C18.5149 22.4592 20.5323 20.929 21.96 18.9081C23.3876 16.8872 24.1557 14.4743 24.1589 12V12ZM20.2289 6.12001C21.4098 7.72941 22.082 9.65537 22.1589 11.65C21.2789 11.56 20.3389 11.51 19.5389 11.51C18.1405 11.5156 16.7453 11.6428 15.3689 11.89C15.0989 11.2 14.8089 10.52 14.4789 9.89001C16.5701 8.92218 18.5076 7.65191 20.2289 6.12001V6.12001ZM18.8989 4.64001C17.2721 6.05611 15.4459 7.22528 13.4789 8.11001C12.21 6.04474 10.6354 4.18362 8.80894 2.59001C9.88262 2.19937 11.0164 1.99969 12.1589 2.00001C14.6583 1.99767 17.0661 2.94077 18.8989 4.64001V4.64001ZM6.83894 3.55001C8.69579 5.051 10.2995 6.84045 11.5889 8.85001C9.30809 9.61949 6.91607 10.008 4.50894 10C3.79894 10 3.08894 10 2.37894 9.89001C2.66298 8.5896 3.20378 7.35897 3.96964 6.27029C4.73549 5.1816 5.71099 4.25677 6.83894 3.55001V3.55001ZM2.15894 11.92C2.93894 11.99 3.72894 12.04 4.50894 12.04C7.26716 12.0351 10.0039 11.5547 12.5989 10.62C12.8789 11.18 13.1389 11.75 13.3689 12.33C9.82099 13.271 6.53878 15.02 3.77894 17.44C2.70991 15.7984 2.1466 13.879 2.15894 11.92V11.92ZM5.02894 19C7.60851 16.7171 10.693 15.0789 14.0289 14.22C14.6507 16.2931 14.9674 18.4457 14.9689 20.61C14.9689 20.94 14.9689 21.27 14.9689 21.61C14.0548 21.8693 13.1091 22.0005 12.1589 22C10.8308 21.9985 9.51629 21.7324 8.29211 21.2173C7.06793 20.7023 5.95862 19.9485 5.02894 19V19ZM17.0289 20.76C17.0289 20.71 17.0289 20.66 17.0289 20.61C17.0181 18.3075 16.6814 16.0181 16.0289 13.81C17.1854 13.6142 18.356 13.5138 19.5289 13.51C20.2889 13.51 21.1889 13.56 22.0189 13.64C21.7713 15.1304 21.1891 16.5454 20.3162 17.7785C19.4433 19.0117 18.3023 20.0311 16.9789 20.76H17.0289Z" fill="white"/>
</g>
<defs>
<clipPath id="clip0_448_5255">
<rect width="24" height="24" fill="white" transform="translate(0.158936)"/>
</clipPath>
</defs>
</svg>
