<svg width="48" height="48" viewBox="0 0 48 48" fill="none" xmlns="http://www.w3.org/2000/svg">
<g clip-path="url(#clip0_94_221)">
<path d="M36.5703 27.4349V29.7149H41.1453V36.5699H43.4253V20.5649H41.1453V27.4349H36.5703Z" fill="#DC2626"/>
<path d="M38.8657 41.1448H16.0057V38.8648H13.7107V41.1448H11.4307V47.9998H43.4257V41.1448H41.1457V36.5698H38.8657V41.1448ZM38.8657 45.7198H34.2907V43.4248H38.8657V45.7198Z" fill="#DC2626"/>
<path d="M34.29 27.4352H36.57V20.5652H41.145V18.2852H34.29V27.4352Z" fill="#DC2626"/>
<path d="M36.57 2.27979H34.29V9.14979H36.57V2.27979Z" fill="#DC2626"/>
<path d="M34.2901 9.1499H31.9951V13.7099H34.2901V9.1499Z" fill="#DC2626"/>
<path d="M34.2898 27.4351H29.7148V29.7151H34.2898V27.4351Z" fill="#DC2626"/>
<path d="M29.7148 18.285H34.2898V16.005H31.9948V13.71H29.7148V18.285Z" fill="#DC2626"/>
<path d="M34.2905 0H27.4355V2.28H34.2905V0Z" fill="#DC2626"/>
<path d="M27.4356 29.7152V27.4352H29.7156V18.2852H27.4356V25.1402H25.1406V29.7152H27.4356Z" fill="#DC2626"/>
<path d="M27.4356 2.27979H25.1406V9.14979H27.4356V2.27979Z" fill="#DC2626"/>
<path d="M25.1404 22.8599H22.8604V25.1399H25.1404V22.8599Z" fill="#DC2626"/>
<path d="M25.1404 9.1499H22.8604V13.7099H25.1404V9.1499Z" fill="#DC2626"/>
<path d="M25.1402 29.7148H18.2852V31.9948H25.1402V29.7148Z" fill="#DC2626"/>
<path d="M22.8602 20.5649H18.2852V22.8599H22.8602V20.5649Z" fill="#DC2626"/>
<path d="M20.5802 16.005V18.285H22.8602V13.71H18.2852V16.005H20.5802Z" fill="#DC2626"/>
<path d="M18.2849 27.4351H16.0049V29.7151H18.2849V27.4351Z" fill="#DC2626"/>
<path d="M18.2849 9.1499H16.0049V13.7099H18.2849V9.1499Z" fill="#DC2626"/>
<path d="M18.2857 18.2852H11.4307V20.5652H18.2857V18.2852Z" fill="#DC2626"/>
<path d="M16.005 2.27979H13.71V9.14979H16.005V2.27979Z" fill="#DC2626"/>
<path d="M13.7107 36.5698H11.4307V38.8648H13.7107V36.5698Z" fill="#DC2626"/>
<path d="M11.4304 31.9951H9.15039V36.5701H11.4304V31.9951Z" fill="#DC2626"/>
<path d="M11.4304 20.5649H9.15039V22.8599H11.4304V20.5649Z" fill="#DC2626"/>
<path d="M11.4304 13.71H9.15039V18.285H11.4304V13.71Z" fill="#DC2626"/>
<path d="M13.7105 0H6.85547V2.28H13.7105V0Z" fill="#DC2626"/>
<path d="M9.15047 22.8599H6.85547V31.9949H9.15047V22.8599Z" fill="#DC2626"/>
<path d="M9.15047 9.1499H6.85547V13.7099H9.15047V9.1499Z" fill="#DC2626"/>
<path d="M6.8552 2.27979H4.5752V9.14979H6.8552V2.27979Z" fill="#DC2626"/>
</g>
<defs>
<clipPath id="clip0_94_221">
<rect width="48" height="48" fill="white"/>
</clipPath>
</defs>
</svg>
