<svg width="48" height="48" viewBox="0 0 48 48" fill="none" xmlns="http://www.w3.org/2000/svg">
<path d="M44.5725 13.7175H46.8525V18.2775H44.5725V13.7175Z" fill="url(#paint0_linear_328_7145)"/>
<path d="M39.9976 11.4226H44.5726V13.7176H39.9976V11.4226Z" fill="url(#paint1_linear_328_7145)"/>
<path d="M39.9975 27.4275H42.2925V20.5725H44.5725V18.2775H39.9975V13.7175H37.7175V20.5725H39.9975V27.4275Z" fill="url(#paint2_linear_328_7145)"/>
<path d="M37.7174 29.7075H35.4224V32.0025H37.7174V34.2825H10.2824V32.0025H12.5774V29.7075H10.2824V27.4275H8.00244V38.8575H10.2824V41.1375H37.7174V38.8575H39.9974V27.4275H37.7174V29.7075Z" fill="url(#paint3_linear_328_7145)"/>
<path d="M35.4224 20.5725H37.7174V22.8525H35.4224V20.5725Z" fill="url(#paint4_linear_328_7145)"/>
<path d="M33.1426 22.8525H35.4226V25.1475H33.1426V22.8525Z" fill="url(#paint5_linear_328_7145)"/>
<path d="M30.8625 25.1475H33.1425V27.4275H30.8625V25.1475Z" fill="url(#paint6_linear_328_7145)"/>
<path d="M28.5674 29.7075H33.1424V32.0025H28.5674V29.7075Z" fill="url(#paint7_linear_328_7145)"/>
<path d="M28.5674 20.5725H30.8624V25.1475H28.5674V20.5725Z" fill="url(#paint8_linear_328_7145)"/>
<path d="M26.2874 15.9976H28.5674V20.5726H26.2874V15.9976Z" fill="url(#paint9_linear_328_7145)"/>
<path d="M26.2874 9.14258H28.5674V13.7176H26.2874V9.14258Z" fill="url(#paint10_linear_328_7145)"/>
<path d="M21.7124 13.7175H26.2874V15.9975H21.7124V13.7175Z" fill="url(#paint11_linear_328_7145)"/>
<path d="M21.7124 6.86255H26.2874V9.14255H21.7124V6.86255Z" fill="url(#paint12_linear_328_7145)"/>
<path d="M21.7124 27.4275H26.2874V32.0025H21.7124V27.4275Z" fill="url(#paint13_linear_328_7145)"/>
<path d="M19.4324 15.9976H21.7124V20.5726H19.4324V15.9976Z" fill="url(#paint14_linear_328_7145)"/>
<path d="M19.4324 9.14258H21.7124V13.7176H19.4324V9.14258Z" fill="url(#paint15_linear_328_7145)"/>
<path d="M17.1375 20.5725H19.4325V25.1475H17.1375V20.5725Z" fill="url(#paint16_linear_328_7145)"/>
<path d="M14.8574 29.7075H19.4324V32.0025H14.8574V29.7075Z" fill="url(#paint17_linear_328_7145)"/>
<path d="M14.8574 25.1475H17.1374V27.4275H14.8574V25.1475Z" fill="url(#paint18_linear_328_7145)"/>
<path d="M12.5774 22.8525H14.8574V25.1475H12.5774V22.8525Z" fill="url(#paint19_linear_328_7145)"/>
<path d="M10.2825 20.5725H12.5775V22.8525H10.2825V20.5725Z" fill="url(#paint20_linear_328_7145)"/>
<path d="M3.42749 18.2775V20.5725H5.72249V27.4275H8.00249V20.5725H10.2825V13.7175H8.00249V18.2775H3.42749Z" fill="url(#paint21_linear_328_7145)"/>
<path d="M3.42749 11.4226H8.00249V13.7176H3.42749V11.4226Z" fill="url(#paint22_linear_328_7145)"/>
<path d="M1.14746 13.7175H3.42746V18.2775H1.14746V13.7175Z" fill="url(#paint23_linear_328_7145)"/>
<defs>
<linearGradient id="paint0_linear_328_7145" x1="46.8525" y1="18.2775" x2="43.1738" y2="16.2279" gradientUnits="userSpaceOnUse">
<stop stop-color="#DC2626"/>
<stop offset="1" stop-color="#FA603E"/>
</linearGradient>
<linearGradient id="paint1_linear_328_7145" x1="44.5726" y1="13.7176" x2="42.9426" y2="10.0968" gradientUnits="userSpaceOnUse">
<stop stop-color="#DC2626"/>
<stop offset="1" stop-color="#FA603E"/>
</linearGradient>
<linearGradient id="paint2_linear_328_7145" x1="44.5725" y1="27.4275" x2="33.5123" y2="21.2651" gradientUnits="userSpaceOnUse">
<stop stop-color="#DC2626"/>
<stop offset="1" stop-color="#FA603E"/>
</linearGradient>
<linearGradient id="paint3_linear_328_7145" x1="39.9974" y1="41.1375" x2="31.2829" y2="18.4752" gradientUnits="userSpaceOnUse">
<stop stop-color="#DC2626"/>
<stop offset="1" stop-color="#FA603E"/>
</linearGradient>
<linearGradient id="paint4_linear_328_7145" x1="37.7174" y1="22.8525" x2="35.5685" y2="20.4422" gradientUnits="userSpaceOnUse">
<stop stop-color="#DC2626"/>
<stop offset="1" stop-color="#FA603E"/>
</linearGradient>
<linearGradient id="paint5_linear_328_7145" x1="35.4226" y1="25.1475" x2="33.2565" y2="22.7496" gradientUnits="userSpaceOnUse">
<stop stop-color="#DC2626"/>
<stop offset="1" stop-color="#FA603E"/>
</linearGradient>
<linearGradient id="paint6_linear_328_7145" x1="33.1425" y1="27.4275" x2="30.9921" y2="25.0312" gradientUnits="userSpaceOnUse">
<stop stop-color="#DC2626"/>
<stop offset="1" stop-color="#FA603E"/>
</linearGradient>
<linearGradient id="paint7_linear_328_7145" x1="33.1424" y1="32.0025" x2="31.5124" y2="28.3817" gradientUnits="userSpaceOnUse">
<stop stop-color="#DC2626"/>
<stop offset="1" stop-color="#FA603E"/>
</linearGradient>
<linearGradient id="paint8_linear_328_7145" x1="30.8624" y1="25.1475" x2="27.1652" y2="23.0808" gradientUnits="userSpaceOnUse">
<stop stop-color="#DC2626"/>
<stop offset="1" stop-color="#FA603E"/>
</linearGradient>
<linearGradient id="paint9_linear_328_7145" x1="28.5674" y1="20.5726" x2="24.883" y2="18.5265" gradientUnits="userSpaceOnUse">
<stop stop-color="#DC2626"/>
<stop offset="1" stop-color="#FA603E"/>
</linearGradient>
<linearGradient id="paint10_linear_328_7145" x1="28.5674" y1="13.7176" x2="24.883" y2="11.6715" gradientUnits="userSpaceOnUse">
<stop stop-color="#DC2626"/>
<stop offset="1" stop-color="#FA603E"/>
</linearGradient>
<linearGradient id="paint11_linear_328_7145" x1="26.2874" y1="15.9975" x2="24.6751" y2="12.3925" gradientUnits="userSpaceOnUse">
<stop stop-color="#DC2626"/>
<stop offset="1" stop-color="#FA603E"/>
</linearGradient>
<linearGradient id="paint12_linear_328_7145" x1="26.2874" y1="9.14255" x2="24.6751" y2="5.53753" gradientUnits="userSpaceOnUse">
<stop stop-color="#DC2626"/>
<stop offset="1" stop-color="#FA603E"/>
</linearGradient>
<linearGradient id="paint13_linear_328_7145" x1="26.2874" y1="32.0025" x2="21.9724" y2="27.1942" gradientUnits="userSpaceOnUse">
<stop stop-color="#DC2626"/>
<stop offset="1" stop-color="#FA603E"/>
</linearGradient>
<linearGradient id="paint14_linear_328_7145" x1="21.7124" y1="20.5726" x2="18.028" y2="18.5265" gradientUnits="userSpaceOnUse">
<stop stop-color="#DC2626"/>
<stop offset="1" stop-color="#FA603E"/>
</linearGradient>
<linearGradient id="paint15_linear_328_7145" x1="21.7124" y1="13.7176" x2="18.028" y2="11.6715" gradientUnits="userSpaceOnUse">
<stop stop-color="#DC2626"/>
<stop offset="1" stop-color="#FA603E"/>
</linearGradient>
<linearGradient id="paint16_linear_328_7145" x1="19.4325" y1="25.1475" x2="15.7353" y2="23.0808" gradientUnits="userSpaceOnUse">
<stop stop-color="#DC2626"/>
<stop offset="1" stop-color="#FA603E"/>
</linearGradient>
<linearGradient id="paint17_linear_328_7145" x1="19.4324" y1="32.0025" x2="17.8025" y2="28.3817" gradientUnits="userSpaceOnUse">
<stop stop-color="#DC2626"/>
<stop offset="1" stop-color="#FA603E"/>
</linearGradient>
<linearGradient id="paint18_linear_328_7145" x1="17.1374" y1="27.4275" x2="14.987" y2="25.0312" gradientUnits="userSpaceOnUse">
<stop stop-color="#DC2626"/>
<stop offset="1" stop-color="#FA603E"/>
</linearGradient>
<linearGradient id="paint19_linear_328_7145" x1="14.8574" y1="25.1475" x2="12.6913" y2="22.7496" gradientUnits="userSpaceOnUse">
<stop stop-color="#DC2626"/>
<stop offset="1" stop-color="#FA603E"/>
</linearGradient>
<linearGradient id="paint20_linear_328_7145" x1="12.5775" y1="22.8525" x2="10.4286" y2="20.4422" gradientUnits="userSpaceOnUse">
<stop stop-color="#DC2626"/>
<stop offset="1" stop-color="#FA603E"/>
</linearGradient>
<linearGradient id="paint21_linear_328_7145" x1="10.2825" y1="27.4275" x2="-0.777772" y2="21.2651" gradientUnits="userSpaceOnUse">
<stop stop-color="#DC2626"/>
<stop offset="1" stop-color="#FA603E"/>
</linearGradient>
<linearGradient id="paint22_linear_328_7145" x1="8.00249" y1="13.7176" x2="6.37252" y2="10.0968" gradientUnits="userSpaceOnUse">
<stop stop-color="#DC2626"/>
<stop offset="1" stop-color="#FA603E"/>
</linearGradient>
<linearGradient id="paint23_linear_328_7145" x1="3.42746" y1="18.2775" x2="-0.251226" y2="16.2279" gradientUnits="userSpaceOnUse">
<stop stop-color="#DC2626"/>
<stop offset="1" stop-color="#FA603E"/>
</linearGradient>
</defs>
</svg>
