<svg width="48" height="48" viewBox="0 0 48 48" fill="none" xmlns="http://www.w3.org/2000/svg">
<path d="M38.8651 17.1449H43.4251V12.5699H41.1451V10.2749H36.5701V14.8499H38.8651V17.1449Z" fill="url(#paint0_linear_328_7269)"/>
<path d="M38.865 21.7048H41.145V37.7098H38.865V21.7048Z" fill="url(#paint1_linear_328_7269)"/>
<path d="M36.5701 37.71H38.8651V42.285H36.5701V37.71Z" fill="url(#paint2_linear_328_7269)"/>
<path d="M36.5701 17.1448H38.8651V21.7048H36.5701V17.1448Z" fill="url(#paint3_linear_328_7269)"/>
<path d="M34.29 33.135H36.57V35.43H34.29V33.135Z" fill="url(#paint4_linear_328_7269)"/>
<path d="M34.29 28.5598H36.57V30.8548H34.29V28.5598Z" fill="url(#paint5_linear_328_7269)"/>
<path d="M34.29 24H36.57V26.28H34.29V24Z" fill="url(#paint6_linear_328_7269)"/>
<path d="M32.01 42.2849H36.57V44.5649H32.01V42.2849Z" fill="url(#paint7_linear_328_7269)"/>
<path d="M32.01 37.71H34.29V39.99H32.01V37.71Z" fill="url(#paint8_linear_328_7269)"/>
<path d="M32.01 19.4248H34.29V21.7048H32.01V19.4248Z" fill="url(#paint9_linear_328_7269)"/>
<path d="M32.01 14.8499H36.57V17.1449H32.01V14.8499Z" fill="url(#paint10_linear_328_7269)"/>
<path d="M32.01 3.41992H34.29V7.99492H32.01V3.41992Z" fill="url(#paint11_linear_328_7269)"/>
<path d="M20.5798 30.855H22.8598V33.135H25.1398V30.855H32.0098V28.56H25.1398V24H22.8598V28.56H20.5798V30.855Z" fill="url(#paint12_linear_328_7269)"/>
<path d="M16.0049 44.5649H32.0099V46.8599H16.0049V44.5649Z" fill="url(#paint13_linear_328_7269)"/>
<path d="M27.4351 39.99H29.7151V42.285H27.4351V39.99Z" fill="url(#paint14_linear_328_7269)"/>
<path d="M27.4351 17.1448H29.7151V19.4248H27.4351V17.1448Z" fill="url(#paint15_linear_328_7269)"/>
<path d="M22.8599 39.99H25.1399V42.285H22.8599V39.99Z" fill="url(#paint16_linear_328_7269)"/>
<path d="M22.8599 17.1448H25.1399V19.4248H22.8599V17.1448Z" fill="url(#paint17_linear_328_7269)"/>
<path d="M18.2849 39.99H20.5799V42.285H18.2849V39.99Z" fill="url(#paint18_linear_328_7269)"/>
<path d="M18.2849 17.1448H20.5799V19.4248H18.2849V17.1448Z" fill="url(#paint19_linear_328_7269)"/>
<path d="M32.0099 14.8499V12.5699H27.4349V10.2749H32.0099V7.99489H29.7149V3.41989H32.0099V1.13989H16.0049V3.41989H18.2849V7.99489H16.0049V10.2749H20.5799V12.5699H16.0049V14.8499H32.0099ZM25.1399 3.41989H27.4349V7.99489H25.1399V3.41989ZM25.1399 12.5699H22.8599V10.2749H25.1399V12.5699ZM20.5799 3.41989H22.8599V7.99489H20.5799V3.41989Z" fill="url(#paint20_linear_328_7269)"/>
<path d="M11.4299 42.2849H16.0049V44.5649H11.4299V42.2849Z" fill="url(#paint21_linear_328_7269)"/>
<path d="M13.7249 37.71H16.0049V39.99H13.7249V37.71Z" fill="url(#paint22_linear_328_7269)"/>
<path d="M13.7249 19.4248H16.0049V21.7048H13.7249V19.4248Z" fill="url(#paint23_linear_328_7269)"/>
<path d="M13.7249 3.41992H16.0049V7.99492H13.7249V3.41992Z" fill="url(#paint24_linear_328_7269)"/>
<path d="M11.4299 33.135H13.7249V35.43H11.4299V33.135Z" fill="url(#paint25_linear_328_7269)"/>
<path d="M11.4299 28.5598H13.7249V30.8548H11.4299V28.5598Z" fill="url(#paint26_linear_328_7269)"/>
<path d="M11.4299 24H13.7249V26.28H11.4299V24Z" fill="url(#paint27_linear_328_7269)"/>
<path d="M11.4299 14.8499H16.0049V17.1449H11.4299V14.8499Z" fill="url(#paint28_linear_328_7269)"/>
<path d="M9.1499 37.71H11.4299V42.285H9.1499V37.71Z" fill="url(#paint29_linear_328_7269)"/>
<path d="M9.1499 17.1448H11.4299V21.7048H9.1499V17.1448Z" fill="url(#paint30_linear_328_7269)"/>
<path d="M6.85495 10.2749V12.5699H4.57495V17.1449H9.14995V14.8499H11.43V10.2749H6.85495Z" fill="url(#paint31_linear_328_7269)"/>
<path d="M6.85498 21.7048H9.14998V37.7098H6.85498V21.7048Z" fill="url(#paint32_linear_328_7269)"/>
<defs>
<linearGradient id="paint0_linear_328_7269" x1="43.4251" y1="17.1449" x2="36.944" y2="9.93861" gradientUnits="userSpaceOnUse">
<stop stop-color="#DC2626"/>
<stop offset="1" stop-color="#FA603E"/>
</linearGradient>
<linearGradient id="paint1_linear_328_7269" x1="41.145" y1="37.7098" x2="36.4428" y2="36.9634" gradientUnits="userSpaceOnUse">
<stop stop-color="#DC2626"/>
<stop offset="1" stop-color="#FA603E"/>
</linearGradient>
<linearGradient id="paint2_linear_328_7269" x1="38.8651" y1="42.285" x2="35.1679" y2="40.2183" gradientUnits="userSpaceOnUse">
<stop stop-color="#DC2626"/>
<stop offset="1" stop-color="#FA603E"/>
</linearGradient>
<linearGradient id="paint3_linear_328_7269" x1="38.8651" y1="21.7048" x2="35.1737" y2="19.6346" gradientUnits="userSpaceOnUse">
<stop stop-color="#DC2626"/>
<stop offset="1" stop-color="#FA603E"/>
</linearGradient>
<linearGradient id="paint4_linear_328_7269" x1="36.57" y1="35.43" x2="34.404" y2="33.0321" gradientUnits="userSpaceOnUse">
<stop stop-color="#DC2626"/>
<stop offset="1" stop-color="#FA603E"/>
</linearGradient>
<linearGradient id="paint5_linear_328_7269" x1="36.57" y1="30.8548" x2="34.404" y2="28.4569" gradientUnits="userSpaceOnUse">
<stop stop-color="#DC2626"/>
<stop offset="1" stop-color="#FA603E"/>
</linearGradient>
<linearGradient id="paint6_linear_328_7269" x1="36.57" y1="26.28" x2="34.4196" y2="23.8837" gradientUnits="userSpaceOnUse">
<stop stop-color="#DC2626"/>
<stop offset="1" stop-color="#FA603E"/>
</linearGradient>
<linearGradient id="paint7_linear_328_7269" x1="36.57" y1="44.5649" x2="34.9542" y2="40.9638" gradientUnits="userSpaceOnUse">
<stop stop-color="#DC2626"/>
<stop offset="1" stop-color="#FA603E"/>
</linearGradient>
<linearGradient id="paint8_linear_328_7269" x1="34.29" y1="39.99" x2="32.1396" y2="37.5937" gradientUnits="userSpaceOnUse">
<stop stop-color="#DC2626"/>
<stop offset="1" stop-color="#FA603E"/>
</linearGradient>
<linearGradient id="paint9_linear_328_7269" x1="34.29" y1="21.7048" x2="32.1396" y2="19.3085" gradientUnits="userSpaceOnUse">
<stop stop-color="#DC2626"/>
<stop offset="1" stop-color="#FA603E"/>
</linearGradient>
<linearGradient id="paint10_linear_328_7269" x1="36.57" y1="17.1449" x2="34.9365" y2="13.5281" gradientUnits="userSpaceOnUse">
<stop stop-color="#DC2626"/>
<stop offset="1" stop-color="#FA603E"/>
</linearGradient>
<linearGradient id="paint11_linear_328_7269" x1="34.29" y1="7.99492" x2="30.6056" y2="5.94883" gradientUnits="userSpaceOnUse">
<stop stop-color="#DC2626"/>
<stop offset="1" stop-color="#FA603E"/>
</linearGradient>
<linearGradient id="paint12_linear_328_7269" x1="32.0098" y1="33.135" x2="23.8011" y2="21.6897" gradientUnits="userSpaceOnUse">
<stop stop-color="#DC2626"/>
<stop offset="1" stop-color="#FA603E"/>
</linearGradient>
<linearGradient id="paint13_linear_328_7269" x1="32.0099" y1="46.8599" x2="31.4587" y2="42.5763" gradientUnits="userSpaceOnUse">
<stop stop-color="#DC2626"/>
<stop offset="1" stop-color="#FA603E"/>
</linearGradient>
<linearGradient id="paint14_linear_328_7269" x1="29.7151" y1="42.285" x2="27.549" y2="39.8871" gradientUnits="userSpaceOnUse">
<stop stop-color="#DC2626"/>
<stop offset="1" stop-color="#FA603E"/>
</linearGradient>
<linearGradient id="paint15_linear_328_7269" x1="29.7151" y1="19.4248" x2="27.5646" y2="17.0285" gradientUnits="userSpaceOnUse">
<stop stop-color="#DC2626"/>
<stop offset="1" stop-color="#FA603E"/>
</linearGradient>
<linearGradient id="paint16_linear_328_7269" x1="25.1399" y1="42.285" x2="22.9738" y2="39.8871" gradientUnits="userSpaceOnUse">
<stop stop-color="#DC2626"/>
<stop offset="1" stop-color="#FA603E"/>
</linearGradient>
<linearGradient id="paint17_linear_328_7269" x1="25.1399" y1="19.4248" x2="22.9894" y2="17.0285" gradientUnits="userSpaceOnUse">
<stop stop-color="#DC2626"/>
<stop offset="1" stop-color="#FA603E"/>
</linearGradient>
<linearGradient id="paint18_linear_328_7269" x1="20.5799" y1="42.285" x2="18.4153" y2="39.8729" gradientUnits="userSpaceOnUse">
<stop stop-color="#DC2626"/>
<stop offset="1" stop-color="#FA603E"/>
</linearGradient>
<linearGradient id="paint19_linear_328_7269" x1="20.5799" y1="19.4248" x2="18.4311" y2="17.0145" gradientUnits="userSpaceOnUse">
<stop stop-color="#DC2626"/>
<stop offset="1" stop-color="#FA603E"/>
</linearGradient>
<linearGradient id="paint20_linear_328_7269" x1="32.0099" y1="14.8499" x2="19.4405" y2="-1.50114" gradientUnits="userSpaceOnUse">
<stop stop-color="#DC2626"/>
<stop offset="1" stop-color="#FA603E"/>
</linearGradient>
<linearGradient id="paint21_linear_328_7269" x1="16.0049" y1="44.5649" x2="14.3927" y2="40.9599" gradientUnits="userSpaceOnUse">
<stop stop-color="#DC2626"/>
<stop offset="1" stop-color="#FA603E"/>
</linearGradient>
<linearGradient id="paint22_linear_328_7269" x1="16.0049" y1="39.99" x2="13.8544" y2="37.5937" gradientUnits="userSpaceOnUse">
<stop stop-color="#DC2626"/>
<stop offset="1" stop-color="#FA603E"/>
</linearGradient>
<linearGradient id="paint23_linear_328_7269" x1="16.0049" y1="21.7048" x2="13.8544" y2="19.3085" gradientUnits="userSpaceOnUse">
<stop stop-color="#DC2626"/>
<stop offset="1" stop-color="#FA603E"/>
</linearGradient>
<linearGradient id="paint24_linear_328_7269" x1="16.0049" y1="7.99492" x2="12.3205" y2="5.94883" gradientUnits="userSpaceOnUse">
<stop stop-color="#DC2626"/>
<stop offset="1" stop-color="#FA603E"/>
</linearGradient>
<linearGradient id="paint25_linear_328_7269" x1="13.7249" y1="35.43" x2="11.5604" y2="33.018" gradientUnits="userSpaceOnUse">
<stop stop-color="#DC2626"/>
<stop offset="1" stop-color="#FA603E"/>
</linearGradient>
<linearGradient id="paint26_linear_328_7269" x1="13.7249" y1="30.8548" x2="11.5604" y2="28.4428" gradientUnits="userSpaceOnUse">
<stop stop-color="#DC2626"/>
<stop offset="1" stop-color="#FA603E"/>
</linearGradient>
<linearGradient id="paint27_linear_328_7269" x1="13.7249" y1="26.28" x2="11.5761" y2="23.8697" gradientUnits="userSpaceOnUse">
<stop stop-color="#DC2626"/>
<stop offset="1" stop-color="#FA603E"/>
</linearGradient>
<linearGradient id="paint28_linear_328_7269" x1="16.0049" y1="17.1449" x2="14.375" y2="13.5241" gradientUnits="userSpaceOnUse">
<stop stop-color="#DC2626"/>
<stop offset="1" stop-color="#FA603E"/>
</linearGradient>
<linearGradient id="paint29_linear_328_7269" x1="11.4299" y1="42.285" x2="7.7455" y2="40.2389" gradientUnits="userSpaceOnUse">
<stop stop-color="#DC2626"/>
<stop offset="1" stop-color="#FA603E"/>
</linearGradient>
<linearGradient id="paint30_linear_328_7269" x1="11.4299" y1="21.7048" x2="7.75122" y2="19.6551" gradientUnits="userSpaceOnUse">
<stop stop-color="#DC2626"/>
<stop offset="1" stop-color="#FA603E"/>
</linearGradient>
<linearGradient id="paint31_linear_328_7269" x1="11.43" y1="17.1449" x2="4.94887" y2="9.93862" gradientUnits="userSpaceOnUse">
<stop stop-color="#DC2626"/>
<stop offset="1" stop-color="#FA603E"/>
</linearGradient>
<linearGradient id="paint32_linear_328_7269" x1="9.14998" y1="37.7098" x2="4.4184" y2="36.9538" gradientUnits="userSpaceOnUse">
<stop stop-color="#DC2626"/>
<stop offset="1" stop-color="#FA603E"/>
</linearGradient>
</defs>
</svg>
