<svg width="48" height="48" viewBox="0 0 48 48" fill="none" xmlns="http://www.w3.org/2000/svg">
<path d="M38.9966 24.9974V27.0055H40.9916V34.9986H42.9997V18.9993H40.9916V24.9974H38.9966Z" fill="#DC2626"/>
<path d="M40.9916 34.9988H38.9966V37.0069H40.9916V34.9988Z" fill="#DC2626"/>
<path d="M40.9916 17.0042H38.9966V18.9991H40.9916V17.0042Z" fill="#DC2626"/>
<path d="M6.99695 43.0052H8.99195V45.0002H22.9963V43.0052H24.9913V40.9971H26.9995V39.0021H38.9957V37.0071H26.9995V29.0009H38.9957V27.0059H24.9913V33.004H22.9963V34.999H8.99195V33.004H6.99695V27.0059H5.00195V40.9971H6.99695V43.0052ZM16.9982 40.9971H21.0013V37.0071H22.9963V40.9971H21.0013V43.0052H16.9982V40.9971Z" fill="#DC2626"/>
<path d="M31.0026 23.0024H26.9995V24.9974H37.0008V23.0024H38.9958V20.9943H37.0008V18.9993H26.9995V20.9943H31.0026V23.0024Z" fill="#DC2626"/>
<path d="M26.9998 20.9941H24.9917V23.0023H26.9998V20.9941Z" fill="#DC2626"/>
<path d="M24.9911 13.0008H22.9961V14.9958H8.9917V17.0039H22.9961V18.9989H24.9911V17.0039H38.9955V14.9958H26.9992V7.00269H24.9911V13.0008Z" fill="#DC2626"/>
<path d="M24.9906 24.9973H22.9956V27.0054H24.9906V24.9973Z" fill="#DC2626"/>
<path d="M24.9906 4.99487H22.9956V7.003H24.9906V4.99487Z" fill="#DC2626"/>
<path d="M22.997 29.0007H21.002V30.9957H22.997V29.0007Z" fill="#DC2626"/>
<path d="M22.997 8.99805H21.002V11.0062H22.997V8.99805Z" fill="#DC2626"/>
<path d="M14.9905 30.9959H11.0005V33.004H21.0017V30.9959H16.9986V29.0009H21.0017V27.0059H11.0005V29.0009H14.9905V30.9959Z" fill="#DC2626"/>
<path d="M14.9905 11.0058H11.0005V13.0008H21.0017V11.0058H16.9986V8.99769H21.0017V7.00269H11.0005V8.99769H14.9905V11.0058Z" fill="#DC2626"/>
<path d="M22.9961 24.9974V18.9993H21.0011V23.0024H8.9917V24.9974H22.9961Z" fill="#DC2626"/>
<path d="M22.9961 3H8.9917V4.995H22.9961V3Z" fill="#DC2626"/>
<path d="M10.9998 29.0007H8.9917V30.9957H10.9998V29.0007Z" fill="#DC2626"/>
<path d="M10.9998 8.99805H8.9917V11.0062H10.9998V8.99805Z" fill="#DC2626"/>
<path d="M8.99109 24.9973H6.99609V27.0054H8.99109V24.9973Z" fill="#DC2626"/>
<path d="M8.99109 20.9941H6.99609V23.0023H8.99109V20.9941Z" fill="#DC2626"/>
<path d="M8.99109 4.99487H6.99609V7.003H8.99109V4.99487Z" fill="#DC2626"/>
<path d="M6.99695 14.9958H8.99195V13.0008H6.99695V7.00269H5.00195V20.9939H6.99695V14.9958Z" fill="#DC2626"/>
</svg>
