<svg width="48" height="48" viewBox="0 0 48 48" fill="none" xmlns="http://www.w3.org/2000/svg">
<path d="M45.72 25.1478V22.8528H43.425V20.5728H41.145V18.2778H38.865V22.8528H36.57V25.1478H34.29V18.2778H38.865V15.9978H27.435V13.7178H25.14V29.7078H2.295V22.8528H0V38.8578H2.295V32.0028H25.14V38.8578H16.005V36.5628H13.71V43.4328H16.005V41.1378H29.715V43.4328H32.01V36.5628H29.715V38.8578H27.435V18.2778H32.01V27.4278H34.29V29.7078H45.72V38.8578H48V25.1478H45.72Z" fill="#DC2626"/>
<path d="M41.1452 36.5625H38.8652V43.4325H41.1452V41.1375H45.7202V38.8575H41.1452V36.5625Z" fill="#DC2626"/>
<path d="M38.8648 43.4326H32.0098V45.7126H38.8648V43.4326Z" fill="#DC2626"/>
<path d="M36.57 38.8579H34.29V41.1379H36.57V38.8579Z" fill="#DC2626"/>
<path d="M38.8648 34.2827H32.0098V36.5627H38.8648V34.2827Z" fill="#DC2626"/>
<path d="M20.5802 9.14279V18.2778H18.2852V20.5728H22.8602V6.86279H18.2852V9.14279H20.5802Z" fill="#DC2626"/>
<path d="M18.285 9.14258H13.71V11.4226H18.285V9.14258Z" fill="#DC2626"/>
<path d="M13.7104 25.1479V22.8529H18.2854V20.5729H13.7104V11.4229H9.15039V13.7179H11.4304V22.8529H9.15039V25.1479H13.7104Z" fill="#DC2626"/>
<path d="M18.285 4.56787H13.71V6.86287H18.285V4.56787Z" fill="#DC2626"/>
<path d="M13.7105 34.2827H6.85547V36.5627H13.7105V34.2827Z" fill="#DC2626"/>
<path d="M13.7104 2.2876H9.15039V4.5676H13.7104V2.2876Z" fill="#DC2626"/>
<path d="M13.7105 43.4326H6.85547V45.7126H13.7105V43.4326Z" fill="#DC2626"/>
<path d="M11.4304 38.8579H9.15039V41.1379H11.4304V38.8579Z" fill="#DC2626"/>
<path d="M9.1502 20.5728H4.5752V22.8528H9.1502V20.5728Z" fill="#DC2626"/>
<path d="M9.1502 4.56787H4.5752V6.86287H9.1502V4.56787Z" fill="#DC2626"/>
<path d="M6.85492 36.5625H4.57492V38.8575H2.29492V41.1375H4.57492V43.4325H6.85492V36.5625Z" fill="#DC2626"/>
<path d="M9.1502 9.14258H4.5752V11.4226H9.1502V9.14258Z" fill="#DC2626"/>
<path d="M2.295 18.2778V9.14279H4.575V6.86279H0V20.5728H4.575V18.2778H2.295Z" fill="#DC2626"/>
</svg>
