<svg width="48" height="48" viewBox="0 0 48 48" fill="none" xmlns="http://www.w3.org/2000/svg">
<g clip-path="url(#clip0_94_143)">
<path d="M44.573 11.4302H42.293V36.5702H44.573V11.4302Z" fill="#DC2626"/>
<path d="M42.293 36.5698H39.998V38.8498H42.293V36.5698Z" fill="#DC2626"/>
<path d="M42.293 9.13477H39.998V11.4298H42.293V9.13477Z" fill="#DC2626"/>
<path d="M39.9973 6.85498H30.8623V9.13498H39.9973V6.85498Z" fill="#DC2626"/>
<path d="M30.8629 38.8501V31.9951H28.5679V34.2901H26.2879V36.5701H24.0079V38.8501H21.7129V41.1451H24.0079V43.4251H26.2879V45.7201H28.5679V48.0001H30.8629V41.1451H39.9979V38.8501H30.8629Z" fill="#DC2626"/>
<path d="M21.7129 11.43H24.0079V9.135H26.2879V6.855H24.0079V4.575H21.7129V2.28H19.4329V0H17.1529V6.855H8.00293V9.135H17.1529V16.005H19.4329V13.71H21.7129V11.43Z" fill="#DC2626"/>
<path d="M17.1529 38.8501H8.00293V41.1451H17.1529V38.8501Z" fill="#DC2626"/>
<path d="M8.00266 36.5698H5.72266V38.8498H8.00266V36.5698Z" fill="#DC2626"/>
<path d="M8.00266 9.13477H5.72266V11.4298H8.00266V9.13477Z" fill="#DC2626"/>
<path d="M5.72273 11.4302H3.42773V36.5702H5.72273V11.4302Z" fill="#DC2626"/>
</g>
<defs>
<clipPath id="clip0_94_143">
<rect width="48" height="48" fill="white"/>
</clipPath>
</defs>
</svg>
