<svg width="189" height="50" viewBox="0 0 189 50" fill="none" xmlns="http://www.w3.org/2000/svg">
<g id="logomark--white">
<g id="iconmark">
<mask id="mask0_63_42" style="mask-type:alpha" maskUnits="userSpaceOnUse" x="0" y="1" width="48" height="48">
<rect id="mask" y="1" width="48" height="48" fill="url(#paint0_radial_63_42)"/>
</mask>
<g mask="url(#mask0_63_42)">
<g id="Group 2">
<path id="Vector" opacity="0.9" d="M9.69758 9.56924C9.21017 8.85687 8.23755 8.67451 7.52518 9.16192C6.8128 9.64933 6.63044 10.6219 7.11785 11.3343L9.69758 9.56924ZM18.277 24.8761L19.5712 25.7524L20.1676 24.8715L19.5669 23.9936L18.277 24.8761ZM7.11357 38.5761C6.62963 39.2908 6.81673 40.2625 7.53147 40.7465C8.24621 41.2304 9.21792 41.0433 9.70186 40.3286L7.11357 38.5761ZM7.11785 11.3343L16.9871 25.7587L19.5669 23.9936L9.69758 9.56924L7.11785 11.3343ZM9.70186 40.3286L19.5712 25.7524L16.9829 23.9999L7.11357 38.5761L9.70186 40.3286Z" fill="#DC2626"/>
<path id="Vector_2" opacity="0.7" d="M-8.174 9.56924C-8.66142 8.85687 -9.63403 8.67451 -10.3464 9.16192C-11.0588 9.64933 -11.2411 10.6219 -10.7537 11.3343L-8.174 9.56924ZM0.405424 24.8761L1.69957 25.7524L2.29598 24.8715L1.69529 23.9936L0.405424 24.8761ZM-10.758 38.5761C-11.242 39.2908 -11.0548 40.2625 -10.3401 40.7465C-9.62537 41.2304 -8.65366 41.0433 -8.16972 40.3286L-10.758 38.5761ZM-10.7537 11.3343L-0.88444 25.7587L1.69529 23.9936L-8.174 9.56924L-10.7537 11.3343ZM-8.16972 40.3286L1.69957 25.7524L-0.888723 23.9999L-10.758 38.5761L-8.16972 40.3286Z" fill="#DC2626"/>
<path id="Vector_3" d="M18.6336 9.56924C18.1462 8.85687 17.1736 8.67451 16.4612 9.16192C15.7488 9.64933 15.5665 10.6219 16.0539 11.3343L18.6336 9.56924ZM27.213 24.8761L28.5072 25.7524L29.1036 24.8715L28.5029 23.9936L27.213 24.8761ZM16.0496 38.5761C15.5657 39.2908 15.7528 40.2625 16.4675 40.7465C17.1822 41.2304 18.154 41.0433 18.6379 40.3286L16.0496 38.5761ZM16.0539 11.3343L25.9232 25.7587L28.5029 23.9936L18.6336 9.56924L16.0539 11.3343ZM18.6379 40.3286L28.5072 25.7524L25.9189 23.9999L16.0496 38.5761L18.6379 40.3286Z" fill="#DC2626"/>
<path id="Vector_4" opacity="0.8" d="M0.762032 9.56924C0.274619 8.85687 -0.697998 8.67451 -1.41037 9.16192C-2.12274 9.64933 -2.30511 10.6219 -1.8177 11.3343L0.762032 9.56924ZM9.34146 24.8761L10.6356 25.7524L11.232 24.8715L10.6313 23.9936L9.34146 24.8761ZM-1.82198 38.5761C-2.30592 39.2908 -2.11881 40.2625 -1.40408 40.7465C-0.68934 41.2304 0.282378 41.0433 0.766315 40.3286L-1.82198 38.5761ZM-1.8177 11.3343L8.0516 25.7587L10.6313 23.9936L0.762032 9.56924L-1.8177 11.3343ZM0.766315 40.3286L10.6356 25.7524L8.04731 23.9999L-1.82198 38.5761L0.766315 40.3286Z" fill="#DC2626"/>
<path id="Vector_5" d="M27.5696 9.56924C27.0822 8.85687 26.1096 8.67451 25.3972 9.16192C24.6849 9.64933 24.5025 10.6219 24.9899 11.3343L27.5696 9.56924ZM36.1491 24.8761L37.4432 25.7524L38.0396 24.8715L37.4389 23.9936L36.1491 24.8761ZM24.9856 38.5761C24.5017 39.2908 24.6888 40.2625 25.4035 40.7465C26.1183 41.2304 27.09 41.0433 27.5739 40.3286L24.9856 38.5761ZM24.9899 11.3343L34.8592 25.7587L37.4389 23.9936L27.5696 9.56924L24.9899 11.3343ZM27.5739 40.3286L37.4432 25.7524L34.8549 23.9999L24.9856 38.5761L27.5739 40.3286Z" fill="#DC2626"/>
</g>
</g>
</g>
<path id="GO TIME" d="M61.97 33.515C57.14 33.515 55.495 30.785 55.495 25.78C55.495 23.4 55.74 20.775 56.825 18.29C58.365 17.835 60.08 17.59 61.55 17.59C65.505 17.59 66.625 18.605 66.625 22H70.16C70.37 16.75 67.43 14.615 62.04 14.615C55.075 14.615 51.925 18.745 51.925 26.305C51.925 33.97 55.565 36.385 61.55 36.385C67.08 36.385 70.335 33.725 70.335 28.405C70.335 27.46 70.3 26.515 70.195 25.745H62.075V28.65C63.615 28.65 65.295 28.475 66.835 28.125C66.905 29.42 66.87 31.24 66.555 32.85C65.085 33.375 63.405 33.515 61.97 33.515ZM82.1852 36.385C89.3252 36.385 92.2652 32.185 92.2652 24.695C92.2652 17.03 88.6602 14.615 82.7452 14.615C75.6052 14.615 72.6652 18.815 72.6652 26.27C72.6652 33.97 76.2702 36.385 82.1852 36.385ZM82.7452 33.41C77.8802 33.41 76.2352 30.68 76.2352 25.71C76.2352 23.365 76.4802 20.845 77.6002 18.325C79.0002 17.8 80.5402 17.59 82.1852 17.59C87.0152 17.59 88.6952 20.32 88.6952 25.255C88.6952 27.6 88.4502 30.155 87.3302 32.675C85.9302 33.2 84.3902 33.41 82.7452 33.41ZM100.349 18.08H106.859V36H110.359V17.765C112.529 17.94 114.699 18.08 116.869 18.08V15H100.349V18.08ZM122.97 36V15H119.47V36H122.97ZM131.125 24.94C131.125 22.56 131.09 19.865 131.02 17.73H131.475C132.175 19.76 132.945 22.07 134.03 24.59L138.125 33.34H141.135L145.23 24.73C146.315 22.35 147.295 19.795 148.03 17.73H148.485C148.415 19.83 148.24 22.595 148.24 24.94V36H151.74V15H146.385L142.045 24.73C141.38 26.235 140.715 27.985 140.19 29.63H139.7C139.14 28.055 138.44 26.095 137.915 24.765L133.645 15H127.94V36H131.125V24.94ZM156.713 36H171.063V33.06H160.213V27.145C163.398 27.46 166.583 27.705 169.803 27.635V24.87H160.213V17.66C163.818 17.835 167.458 17.94 171.063 17.94V15H156.713V36Z" fill="white"/>
</g>
<defs>
<radialGradient id="paint0_radial_63_42" cx="0" cy="0" r="1" gradientUnits="userSpaceOnUse" gradientTransform="translate(35.5 25) rotate(180) scale(35.5 98.4883)">
<stop stop-color="#DC2626"/>
<stop offset="0.046963" stop-color="#DC2626" stop-opacity="0.97917"/>
<stop offset="0.089037" stop-color="#DC2626" stop-opacity="0.95603"/>
<stop offset="0.128" stop-color="#DC2626" stop-opacity="0.9296"/>
<stop offset="0.16563" stop-color="#DC2626" stop-opacity="0.898904"/>
<stop offset="0.203704" stop-color="#DC2626" stop-opacity="0.862963"/>
<stop offset="0.244" stop-color="#DC2626" stop-opacity="0.8208"/>
<stop offset="0.288296" stop-color="#DC2626" stop-opacity="0.771437"/>
<stop offset="0.33837" stop-color="#DC2626" stop-opacity="0.713896"/>
<stop offset="0.396" stop-color="#DC2626" stop-opacity="0.6472"/>
<stop offset="0.462963" stop-color="#DC2626" stop-opacity="0.57037"/>
<stop offset="0.541037" stop-color="#DC2626" stop-opacity="0.48243"/>
<stop offset="0.632" stop-color="#DC2626" stop-opacity="0.3824"/>
<stop offset="0.73763" stop-color="#DC2626" stop-opacity="0.269304"/>
<stop offset="0.859704" stop-color="#DC2626" stop-opacity="0.142163"/>
<stop offset="1" stop-color="#DC2626" stop-opacity="0"/>
</radialGradient>
</defs>
</svg>
