<svg width="188" height="50" viewBox="0 0 188 50" fill="none" xmlns="http://www.w3.org/2000/svg">
<path d="M60.97 32.515C61.6933 32.515 62.4517 32.4683 63.245 32.375C64.0617 32.2817 64.8317 32.1067 65.555 31.85C65.7183 31.0567 65.8117 30.24 65.835 29.4C65.8583 28.5367 65.8583 27.7783 65.835 27.125C65.065 27.2883 64.2717 27.4167 63.455 27.51C62.6383 27.6033 61.845 27.65 61.075 27.65V24.745H69.195C69.2417 25.1183 69.2767 25.5383 69.3 26.005C69.3233 26.4717 69.335 26.9383 69.335 27.405C69.335 30.0417 68.5533 32.0367 66.99 33.39C65.45 34.72 63.3033 35.385 60.55 35.385C59.0567 35.385 57.715 35.2217 56.525 34.895C55.335 34.545 54.32 33.985 53.48 33.215C52.6633 32.445 52.0333 31.4183 51.59 30.135C51.1467 28.8283 50.925 27.2183 50.925 25.305C50.925 21.5483 51.7417 18.6667 53.375 16.66C55.0083 14.63 57.5633 13.615 61.04 13.615C63.7233 13.615 65.765 14.1983 67.165 15.365C68.5883 16.5083 69.2533 18.3867 69.16 21H65.625C65.625 19.32 65.2633 18.165 64.54 17.535C63.84 16.905 62.51 16.59 60.55 16.59C59.8267 16.59 59.045 16.6483 58.205 16.765C57.3883 16.8817 56.595 17.0567 55.825 17.29C55.2883 18.5267 54.9267 19.7867 54.74 21.07C54.5767 22.3533 54.495 23.59 54.495 24.78C54.495 27.2767 54.9733 29.19 55.93 30.52C56.8867 31.85 58.5667 32.515 60.97 32.515ZM81.1852 35.385C79.7152 35.385 78.3852 35.2217 77.1952 34.895C76.0286 34.545 75.0369 33.985 74.2202 33.215C73.4036 32.445 72.7736 31.4067 72.3302 30.1C71.8869 28.7933 71.6652 27.1833 71.6652 25.27C71.6652 21.56 72.4586 18.69 74.0452 16.66C75.6319 14.63 78.1986 13.615 81.7452 13.615C83.2152 13.615 84.5336 13.79 85.7002 14.14C86.8902 14.4667 87.8936 15.015 88.7102 15.785C89.5269 16.555 90.1569 17.5933 90.6002 18.9C91.0436 20.1833 91.2652 21.7817 91.2652 23.695C91.2652 27.4283 90.4719 30.31 88.8852 32.34C87.2986 34.37 84.7319 35.385 81.1852 35.385ZM81.7452 32.41C82.5619 32.41 83.3552 32.3517 84.1252 32.235C84.8952 32.1183 85.6302 31.9317 86.3302 31.675C86.8902 30.415 87.2519 29.155 87.4152 27.895C87.6019 26.635 87.6952 25.4217 87.6952 24.255C87.6952 21.805 87.2052 19.915 86.2252 18.585C85.2686 17.255 83.5886 16.59 81.1852 16.59C80.3686 16.59 79.5752 16.6483 78.8052 16.765C78.0352 16.8817 77.3002 17.0683 76.6002 17.325C76.0402 18.585 75.6669 19.845 75.4802 21.105C75.3169 22.3417 75.2352 23.5433 75.2352 24.71C75.2352 27.1833 75.7136 29.085 76.6702 30.415C77.6269 31.745 79.3186 32.41 81.7452 32.41ZM99.3491 17.08V14H115.869V17.08C114.796 17.08 113.711 17.0567 112.614 17.01C111.517 16.94 110.432 16.8583 109.359 16.765V35H105.859V17.08H99.3491ZM121.97 35H118.47V14H121.97V35ZM130.125 23.94V35H126.94V14H132.645L136.915 23.765C137.172 24.4183 137.463 25.2 137.79 26.11C138.117 26.9967 138.42 27.8367 138.7 28.63H139.19C139.447 27.8133 139.738 26.985 140.065 26.145C140.392 25.2817 140.718 24.4767 141.045 23.73L145.385 14H150.74V35H147.24V23.94C147.24 22.7733 147.275 21.5483 147.345 20.265C147.415 18.9583 147.462 17.78 147.485 16.73H147.03C146.657 17.7567 146.225 18.8883 145.735 20.125C145.268 21.3383 144.767 22.54 144.23 23.73L140.135 32.34H137.125L133.03 23.59C132.493 22.33 132.015 21.1283 131.595 19.985C131.198 18.8183 130.825 17.7333 130.475 16.73H130.02C130.043 17.8033 130.067 18.9817 130.09 20.265C130.113 21.525 130.125 22.75 130.125 23.94ZM155.713 35V14H170.063V16.94C168.266 16.94 166.458 16.9167 164.638 16.87C162.818 16.8233 161.009 16.7533 159.213 16.66V23.87H168.803V26.635C167.193 26.6583 165.583 26.6233 163.973 26.53C162.386 26.4367 160.799 26.3083 159.213 26.145V32.06H170.063V35H155.713Z" fill="white"/>
<mask id="mask0_448_5208" style="mask-type:alpha" maskUnits="userSpaceOnUse" x="0" y="6" width="46" height="38">
<ellipse cx="22.7513" cy="25.1958" rx="22.7167" ry="18.2125" fill="url(#paint0_linear_448_5208)"/>
</mask>
<g mask="url(#mask0_448_5208)">
<path fill-rule="evenodd" clip-rule="evenodd" d="M-5.21582 12.2806V8.71545H-4.89553L8.63795 25.2651V25.4657L-4.89295 41.8798H-5.21582V38.5003C-3.53809 35.7931 -1.76068 33.37 0.116387 31.231C1.99346 29.0585 3.94528 27.1869 5.97185 25.6161V25.215C3.94528 23.6441 1.99346 21.7725 0.116387 19.6001C-1.76068 17.4276 -3.53809 14.9878 -5.21582 12.2806Z" fill="#DC2626"/>
<path fill-rule="evenodd" clip-rule="evenodd" d="M5.11304 12.2806V8.71545H5.43332L18.9668 25.2651V25.4657L5.43591 41.8798H5.11304V38.5003C6.79077 35.7931 8.56817 33.37 10.4452 31.231C12.3223 29.0585 14.2741 27.1869 16.3007 25.6161V25.215C14.2741 23.6441 12.3223 21.7725 10.4452 19.6001C8.56817 17.4276 6.79077 14.9878 5.11304 12.2806Z" fill="#DC2626"/>
<path fill-rule="evenodd" clip-rule="evenodd" d="M15.4417 12.2806V8.71545H15.7619L29.2954 25.2651V25.4657L15.7645 41.8798H15.4417V38.5003C17.1194 35.7931 18.8968 33.37 20.7739 31.231C22.6509 29.0585 24.6027 27.1869 26.6293 25.6161V25.215C24.6027 23.6441 22.6509 21.7725 20.7739 19.6001C18.8968 17.4276 17.1194 14.9878 15.4417 12.2806Z" fill="#DC2626"/>
<path fill-rule="evenodd" clip-rule="evenodd" d="M25.7705 12.2806V8.71545H26.0908L39.6243 25.2651V25.4657L26.0934 41.8798H25.7705V38.5003C27.4482 35.7931 29.2256 33.37 31.1027 31.231C32.9798 29.0585 34.9316 27.1869 36.9582 25.6161V25.215C34.9316 23.6441 32.9798 21.7725 31.1027 19.6001C29.2256 17.4276 27.4482 14.9878 25.7705 12.2806Z" fill="#DC2626"/>
</g>
<defs>
<linearGradient id="paint0_linear_448_5208" x1="38.418" y1="24.9999" x2="2.18883" y2="24.9999" gradientUnits="userSpaceOnUse">
<stop offset="0.1964" stop-color="#DC2626"/>
<stop offset="1" stop-color="#DC2626" stop-opacity="0"/>
</linearGradient>
</defs>
</svg>
