<svg width="158" height="49" viewBox="0 0 158 49" fill="none" xmlns="http://www.w3.org/2000/svg">
<path d="M57.6828 29.6727C58.1849 29.6727 58.714 29.6458 59.2699 29.592C59.8258 29.5382 60.3638 29.4396 60.8838 29.2961C60.9735 28.7223 61.0273 28.1305 61.0452 27.5208C61.0811 26.9111 61.09 26.3731 61.0721 25.9068C60.4983 26.0324 59.9065 26.131 59.2968 26.2027C58.705 26.2565 58.1401 26.2834 57.6021 26.2834V23.8087H64.1117C64.1655 24.1315 64.1924 24.4812 64.1924 24.8578C64.2103 25.2344 64.2193 25.6109 64.2193 25.9875C64.2193 28.0498 63.6096 29.601 62.3902 30.6411C61.1707 31.6812 59.494 32.2012 57.36 32.2012C56.1765 32.2012 55.1095 32.0757 54.1591 31.8246C53.2265 31.5556 52.4285 31.1252 51.765 30.5335C51.1015 29.9417 50.5904 29.1527 50.2318 28.1664C49.8911 27.1621 49.7207 25.9248 49.7207 24.4543C49.7207 21.5671 50.3663 19.3435 51.6574 17.7833C52.9665 16.2232 54.9929 15.4431 57.7366 15.4431C59.8168 15.4431 61.4128 15.9004 62.5247 16.8149C63.6365 17.7116 64.1565 19.2 64.0848 21.2802H60.9107C60.9107 20.0966 60.6597 19.2897 60.1575 18.8593C59.6734 18.411 58.7409 18.1868 57.36 18.1868C56.8041 18.1868 56.2213 18.2227 55.6116 18.2944C55.0019 18.3661 54.4101 18.4737 53.8363 18.6172C53.4955 19.5138 53.2714 20.4284 53.1638 21.3609C53.0562 22.2934 53.0024 23.19 53.0024 24.0508C53.0024 25.862 53.3431 27.2518 54.0246 28.2201C54.7239 29.1885 55.9434 29.6727 57.6828 29.6727Z" fill="white"/>
<path d="M65.8809 25.9337C65.8809 23.7459 66.4189 22.0423 67.4949 20.8229C68.5708 19.6035 70.1041 18.9938 72.0946 18.9938C73.9596 18.9938 75.4301 19.46 76.5061 20.3925C77.6 21.325 78.1469 23.0017 78.1469 25.4226C78.1469 27.5208 77.6269 29.1795 76.5868 30.399C75.5646 31.6184 74.0493 32.2281 72.0408 32.2281C70.14 32.2281 68.6336 31.7798 67.5218 30.8832C66.4279 29.9686 65.8809 28.3188 65.8809 25.9337ZM71.8794 21.5492C71.5028 21.5492 71.0994 21.5761 70.669 21.6299C70.2386 21.6837 69.8261 21.7644 69.4316 21.872C69.2882 22.5355 69.1716 23.2169 69.0819 23.9163C69.0102 24.5977 68.9743 25.2433 68.9743 25.853C68.9743 26.8931 69.1716 27.7898 69.5661 28.5429C69.9786 29.2961 70.8931 29.6727 72.3098 29.6727C72.6505 29.6727 73.0002 29.6548 73.3589 29.6189C73.7355 29.5651 74.13 29.4754 74.5424 29.3499C74.6859 28.794 74.7935 28.2201 74.8652 27.6284C74.9549 27.0187 74.9997 26.3731 74.9997 25.6916C74.9997 25.0102 74.9639 24.4094 74.8921 23.8894C74.8204 23.3693 74.6769 22.939 74.4617 22.5982C74.2465 22.2575 73.9327 21.9975 73.5203 21.8182C73.1078 21.6388 72.5609 21.5492 71.8794 21.5492Z" fill="white"/>
<path d="M83.185 18.6172V15.7659H96.0427V18.6172C95.2357 18.6172 94.4288 18.5903 93.6218 18.5365C92.8328 18.4827 92.0348 18.4199 91.2278 18.3482V31.9053H87.9999V18.6172H83.185Z" fill="white"/>
<path d="M101.215 17.4968H97.8254V14.511H101.215V17.4968ZM101.08 31.9053H97.9599V19.3166H101.08V31.9053Z" fill="white"/>
<path d="M106.39 26.0414V31.9054H103.27V19.3166H106.39V21.8451C107.125 21.0202 107.878 20.3477 108.65 19.8277C109.421 19.3076 110.299 19.0476 111.286 19.0476C111.985 19.0476 112.64 19.2718 113.249 19.7201C113.859 20.1684 114.245 20.9037 114.406 21.9258C115.159 21.1009 115.921 20.4195 116.692 19.8815C117.481 19.3256 118.369 19.0476 119.355 19.0476C119.75 19.0476 120.135 19.1193 120.512 19.2628C120.907 19.4063 121.247 19.6304 121.534 19.9353C121.839 20.2222 122.081 20.6078 122.26 21.0919C122.458 21.5582 122.556 22.1231 122.556 22.7866V31.9054H119.436V23.7819C119.436 23.1721 119.293 22.7059 119.006 22.3831C118.737 22.0603 118.306 21.8989 117.715 21.8989C117.284 21.8989 116.818 22.0155 116.316 22.2486C115.832 22.4638 115.312 22.7956 114.756 23.2439C114.63 23.6743 114.549 24.1226 114.514 24.5888C114.478 25.0551 114.46 25.5393 114.46 26.0414V31.9054H111.339V23.7819C111.339 23.1721 111.196 22.7059 110.909 22.3831C110.622 22.0603 110.183 21.8989 109.591 21.8989C109.179 21.8989 108.73 22.0155 108.246 22.2486C107.762 22.4638 107.242 22.7956 106.686 23.2439C106.56 23.6743 106.48 24.1226 106.444 24.5888C106.408 25.0551 106.39 25.5393 106.39 26.0414Z" fill="white"/>
<path d="M129.705 21.3071C129.329 21.3071 128.97 21.3251 128.629 21.3609C128.289 21.3968 127.957 21.4506 127.634 21.5223C127.437 22.132 127.302 22.7507 127.231 23.3784C127.159 24.006 127.114 24.6068 127.096 25.1806C127.885 24.9654 128.719 24.7951 129.598 24.6695C130.476 24.544 131.382 24.4723 132.315 24.4543C132.297 23.3246 132.09 22.5176 131.696 22.0334C131.319 21.5492 130.656 21.3071 129.705 21.3071ZM130.324 29.7535C130.665 29.7535 130.996 29.7355 131.319 29.6997C131.642 29.6459 131.938 29.5652 132.207 29.4576C132.243 29.2244 132.261 29.0003 132.261 28.7851C132.279 28.552 132.297 28.3368 132.315 28.1395H135.166V28.4892C135.166 29.7803 134.744 30.7308 133.902 31.3405C133.077 31.9323 131.768 32.2282 129.974 32.2282C128.091 32.2282 126.63 31.7529 125.59 30.8025C124.55 29.8521 124.03 28.2023 124.03 25.8531C124.03 23.7012 124.541 22.0244 125.563 20.823C126.585 19.6035 128.109 18.9938 130.136 18.9938C131.893 18.9938 133.193 19.469 134.036 20.4195C134.879 21.352 135.3 22.67 135.3 24.3736C135.3 24.6606 135.282 24.9564 135.247 25.2613C135.229 25.5662 135.202 25.88 135.166 26.2028H127.123C127.177 27.2249 127.41 28.0767 127.822 28.7582C128.253 29.4217 129.087 29.7535 130.324 29.7535Z" fill="white"/>
<mask id="mask0_512_3267" style="mask-type:alpha" maskUnits="userSpaceOnUse" x="0" y="6" width="45" height="37">
<ellipse cx="22.4624" cy="24.6933" rx="22.4272" ry="17.9805" fill="url(#paint0_linear_512_3267)"/>
</mask>
<g mask="url(#mask0_512_3267)">
<g clip-path="url(#clip0_512_3267)">
<mask id="mask1_512_3267" style="mask-type:alpha" maskUnits="userSpaceOnUse" x="-13" y="6" width="58" height="37">
<ellipse cx="16" cy="24.5" rx="29" ry="18.5" fill="url(#paint1_linear_512_3267)"/>
</mask>
<g mask="url(#mask1_512_3267)">
<path fill-rule="evenodd" clip-rule="evenodd" d="M-5.2168 11.7805V8.21533H-4.89651L8.63697 24.765V24.9655L-4.89393 41.3797H-5.2168V38.0002C-3.53906 35.293 -1.76166 32.8699 0.11541 30.7309C1.99248 28.5584 3.9443 26.6868 5.97087 25.1159V24.7149C3.9443 23.144 1.99248 21.2724 0.11541 19.0999C-1.76166 16.9275 -3.53906 14.4877 -5.2168 11.7805Z" fill="#DC2626"/>
<path fill-rule="evenodd" clip-rule="evenodd" d="M5.11328 11.7805V8.21533H5.43357L18.9671 24.765V24.9655L5.43615 41.3797H5.11328V38.0002C6.79102 35.293 8.56842 32.8699 10.4455 30.7309C12.3226 28.5584 14.2744 26.6868 16.3009 25.1159V24.7149C14.2744 23.144 12.3226 21.2724 10.4455 19.0999C8.56842 16.9275 6.79102 14.4877 5.11328 11.7805Z" fill="#DC2626"/>
<path fill-rule="evenodd" clip-rule="evenodd" d="M15.4414 11.7805V8.21533H15.7617L29.2952 24.765V24.9655L15.7643 41.3797H15.4414V38.0002C17.1191 35.293 18.8965 32.8699 20.7736 30.7309C22.6507 28.5584 24.6025 26.6868 26.6291 25.1159V24.7149C24.6025 23.144 22.6507 21.2724 20.7736 19.0999C18.8965 16.9275 17.1191 14.4877 15.4414 11.7805Z" fill="#DC2626"/>
<path fill-rule="evenodd" clip-rule="evenodd" d="M25.7695 11.7805V8.21533H26.0898L39.6233 24.765V24.9655L26.0924 41.3797H25.7695V38.0002C27.4473 35.293 29.2247 32.8699 31.1017 30.7309C32.9788 28.5584 34.9306 26.6868 36.9572 25.1159V24.7149C34.9306 23.144 32.9788 21.2724 31.1017 19.0999C29.2247 16.9275 27.4473 14.4877 25.7695 11.7805Z" fill="#DC2626"/>
</g>
</g>
</g>
<defs>
<linearGradient id="paint0_linear_512_3267" x1="37.9295" y1="24.5" x2="2.16188" y2="24.5" gradientUnits="userSpaceOnUse">
<stop offset="0.1964" stop-color="#DC2626"/>
<stop offset="1" stop-color="#DC2626" stop-opacity="0"/>
</linearGradient>
<linearGradient id="paint1_linear_512_3267" x1="36" y1="24.3011" x2="3" y2="24.3011" gradientUnits="userSpaceOnUse">
<stop offset="0.1964" stop-color="#DC2626"/>
<stop offset="1" stop-color="#DC2626" stop-opacity="0"/>
</linearGradient>
<clipPath id="clip0_512_3267">
<rect width="47" height="47" fill="white" transform="translate(0 1)"/>
</clipPath>
</defs>
</svg>
