<svg width="1356" height="241" viewBox="0 0 1356 241" fill="none" xmlns="http://www.w3.org/2000/svg">
<g opacity="0.2" clip-path="url(#clip0_39_5584)">
<rect width="1" height="240.599" fill="white"/>
<rect x="30" width="1" height="240.599" fill="white"/>
<rect x="60" width="1" height="240.599" fill="white"/>
<rect x="90" width="1" height="240.599" fill="white"/>
<rect x="120" width="1" height="240.599" fill="white"/>
<rect x="150" width="1" height="240.599" fill="white"/>
<rect x="180" width="1" height="240.599" fill="white"/>
<rect x="210" width="1" height="240.599" fill="white"/>
<rect x="240" width="1" height="240.599" fill="white"/>
<rect x="270" width="1" height="240.599" fill="white"/>
<rect x="300" width="1" height="240.599" fill="white"/>
<rect x="330" width="1" height="240.599" fill="white"/>
<rect x="360" width="1" height="240.599" fill="white"/>
<rect x="390" width="1" height="240.599" fill="white"/>
<rect x="420" width="1" height="240.599" fill="white"/>
<rect x="450" width="1" height="240.599" fill="white"/>
<rect x="480" width="1" height="240.599" fill="white"/>
<rect x="510" width="1" height="240.599" fill="white"/>
<rect x="540" width="1" height="240.599" fill="white"/>
<rect x="570" width="1" height="240.599" fill="white"/>
<rect x="600" width="1" height="240.599" fill="white"/>
<rect x="630" width="1" height="240.599" fill="white"/>
<rect x="660" width="1" height="240.599" fill="white"/>
<rect x="690" width="1" height="240.599" fill="white"/>
<rect x="720" width="1" height="240.599" fill="white"/>
<rect x="750" width="1" height="240.599" fill="white"/>
<rect x="780" width="1" height="240.599" fill="white"/>
<rect x="810" width="1" height="240.599" fill="white"/>
<rect x="840" width="1" height="240.599" fill="white"/>
<rect x="870" width="1" height="240.599" fill="white"/>
<rect x="900" width="1" height="240.599" fill="white"/>
<rect x="930" width="1" height="240.599" fill="white"/>
<rect x="960" width="1" height="240.599" fill="white"/>
<rect x="990" width="1" height="240.599" fill="white"/>
<rect x="1020" width="1" height="240.599" fill="white"/>
<rect x="1050" width="1" height="240.599" fill="white"/>
<rect x="1080" width="1" height="240.599" fill="white"/>
<rect x="1110" width="1" height="240.599" fill="white"/>
<rect x="1140" width="1" height="240.599" fill="white"/>
<rect x="1170" width="1" height="240.599" fill="white"/>
<rect x="1200" width="1" height="240.599" fill="white"/>
<rect x="1230" width="1" height="240.599" fill="white"/>
<rect x="1260" width="1" height="240.599" fill="white"/>
<rect x="1290" width="1" height="240.599" fill="white"/>
<rect x="1320" width="1" height="240.599" fill="white"/>
<rect x="1350" width="1" height="240.599" fill="white"/>
<rect width="1440" height="1" fill="#C4C4C4"/>
<rect y="30" width="1440" height="1" fill="#C4C4C4"/>
<rect y="60" width="1440" height="1" fill="#C4C4C4"/>
<rect y="90" width="1440" height="1" fill="#C4C4C4"/>
<rect y="120" width="1440" height="1" fill="#C4C4C4"/>
<rect y="150" width="1440" height="1" fill="#C4C4C4"/>
<rect y="180" width="1440" height="1" fill="#C4C4C4"/>
<rect y="210" width="1440" height="1" fill="#C4C4C4"/>
<rect y="240" width="1440" height="1" fill="#C4C4C4"/>
</g>
<defs>
<clipPath id="clip0_39_5584">
<rect width="1441" height="241" fill="white"/>
</clipPath>
</defs>
</svg>
