<svg width="890" height="532" viewBox="0 0 890 532" fill="none" xmlns="http://www.w3.org/2000/svg">
<g opacity="0.2">
<rect y="-69" width="1" height="600" fill="white"/>
<rect x="30" y="-69" width="1" height="600" fill="white"/>
<rect x="60" y="-69" width="1" height="600" fill="white"/>
<rect x="90" y="-69" width="1" height="600" fill="white"/>
<rect x="120" y="-69" width="1" height="600" fill="white"/>
<rect x="150" y="-69" width="1" height="600" fill="white"/>
<rect x="180" y="-69" width="1" height="600" fill="white"/>
<rect x="210" y="-69" width="1" height="600" fill="white"/>
<rect x="240" y="-69" width="1" height="600" fill="white"/>
<rect x="270" y="-69" width="1" height="600" fill="white"/>
<rect x="300" y="-69" width="1" height="600" fill="white"/>
<rect x="330" y="-69" width="1" height="600" fill="white"/>
<rect x="360" y="-69" width="1" height="600" fill="white"/>
<rect x="390" y="-69" width="1" height="600" fill="white"/>
<rect x="420" y="-69" width="1" height="600" fill="white"/>
<rect x="450" y="-69" width="1" height="600" fill="white"/>
<rect x="480" y="-69" width="1" height="600" fill="white"/>
<rect x="510" y="-69" width="1" height="600" fill="white"/>
<rect x="540" y="-69" width="1" height="600" fill="white"/>
<rect x="570" y="-69" width="1" height="600" fill="white"/>
<rect x="600" y="-69" width="1" height="600" fill="white"/>
<rect x="630" y="-69" width="1" height="600" fill="white"/>
<rect x="660" y="-69" width="1" height="600" fill="white"/>
<rect x="690" y="-69" width="1" height="600" fill="white"/>
<rect x="720" y="-69" width="1" height="600" fill="white"/>
<rect x="750" y="-69" width="1" height="600" fill="white"/>
<rect x="780" y="-69" width="1" height="600" fill="white"/>
<rect x="810" y="-69" width="1" height="600" fill="white"/>
<rect x="840" y="-69" width="1" height="600" fill="white"/>
<rect x="870" y="-69" width="1" height="600" fill="white"/>
<rect y="21" width="1440" height="1" fill="#C4C4C4"/>
<rect y="51" width="1440" height="1" fill="#C4C4C4"/>
<rect y="81" width="1440" height="1" fill="#C4C4C4"/>
<rect y="111" width="1440" height="1" fill="#C4C4C4"/>
<rect y="141" width="1440" height="1" fill="#C4C4C4"/>
<rect y="171" width="1440" height="1" fill="#C4C4C4"/>
<rect y="201" width="1440" height="1" fill="#C4C4C4"/>
<rect y="231" width="1440" height="1" fill="#C4C4C4"/>
<rect y="261" width="1440" height="1" fill="#C4C4C4"/>
<rect y="291" width="1440" height="1" fill="#C4C4C4"/>
<rect y="321" width="1440" height="1" fill="#C4C4C4"/>
<rect y="351" width="1440" height="1" fill="#C4C4C4"/>
<rect y="381" width="1440" height="1" fill="#C4C4C4"/>
<rect y="411" width="1440" height="1" fill="#C4C4C4"/>
<rect y="441" width="1440" height="1" fill="#C4C4C4"/>
<rect y="471" width="1440" height="1" fill="#C4C4C4"/>
<rect y="501" width="1440" height="1" fill="#C4C4C4"/>
<rect y="531" width="1440" height="1" fill="#C4C4C4"/>
</g>
</svg>
